# Blender3D v245 OBJ File: PORTAb.blend
# www.blender3d.org
mtllib PORTAb.mtl
v 7.993132 0.237613 -11.650331
v 7.550001 0.237613 -11.650331
v 7.550001 0.237613 -10.849658
v 7.993130 0.237613 -10.849658
v 7.993130 0.083396 -10.766262
v 7.993130 0.154217 -10.766262
v 7.550001 0.154217 -10.766262
v 7.550001 0.083396 -10.766262
v 8.076526 0.154217 -10.849658
v 8.076526 0.083396 -10.849658
v 8.076528 0.083396 -11.650331
v 8.076528 0.154217 -11.650331
v 7.993132 0.154217 -11.733727
v 7.993132 0.083396 -11.733727
v 7.550001 0.083396 -11.733727
v 7.550001 0.154217 -11.733727
v 7.554800 0.083396 -10.849658
v 7.554800 0.154217 -10.849658
v 7.554800 0.154217 -11.650331
v 7.554800 0.083396 -11.650331
v 7.550001 -0.000000 -10.849658
v 7.550001 -0.000001 -11.650331
v 7.993132 -0.000001 -11.650331
v 7.993130 -0.000000 -10.849658
v 8.056090 0.217175 -11.650331
v 8.056088 0.217175 -10.849658
v 7.993130 0.217175 -10.786699
v 7.550001 0.217175 -10.786699
v 7.555039 0.217175 -10.849658
v 7.555039 0.217175 -11.650331
v 7.550001 0.217175 -11.713290
v 7.993132 0.217175 -11.713290
v 7.993130 0.020437 -10.786699
v 7.550001 0.020437 -10.786699
v 7.555039 0.154217 -10.786699
v 7.555039 0.083396 -10.786699
v 8.056088 0.154217 -10.786699
v 8.056088 0.083396 -10.786699
v 8.056090 0.083396 -11.713290
v 8.056090 0.154217 -11.713290
v 8.056090 0.020437 -11.650331
v 8.056088 0.020437 -10.849658
v 7.555039 0.154217 -11.713290
v 7.555039 0.083396 -11.713290
v 7.550001 0.020437 -11.713290
v 7.993132 0.020437 -11.713290
v 7.555039 0.020437 -11.650331
v 7.555039 0.020437 -10.849658
v 8.049278 0.210363 -11.706478
v 8.049276 0.210363 -10.793512
v 7.555119 0.210363 -10.793512
v 7.555119 0.210363 -11.706478
v 8.049276 0.027249 -10.793512
v 7.555119 0.027249 -10.793512
v 8.049278 0.027249 -11.706478
v 7.555119 0.027249 -11.706478
v 7.449879 0.027249 -10.793516
v 6.931784 0.027249 -10.793516
v 7.449879 0.027249 -11.706482
v 6.931787 0.027249 -11.706482
v 7.449879 0.210363 -10.793516
v 7.449879 0.210363 -11.706482
v 6.931787 0.210363 -11.706482
v 6.931784 0.210363 -10.793516
v 7.449959 0.020437 -10.849662
v 7.449959 0.020437 -11.650335
v 7.449999 0.020437 -10.786703
v 6.987930 0.020437 -10.786703
v 7.449959 0.154217 -10.786703
v 7.449959 0.083396 -10.786703
v 6.924972 0.020437 -10.849662
v 6.924974 0.020437 -11.650335
v 6.924972 0.083396 -10.786703
v 6.924972 0.154217 -10.786703
v 6.924974 0.154217 -11.713294
v 6.924974 0.083396 -11.713294
v 7.449959 0.154217 -11.713294
v 7.449959 0.083396 -11.713294
v 6.987932 0.020437 -11.713294
v 7.449999 0.020437 -11.713294
v 7.449999 0.217175 -10.786703
v 6.987930 0.217175 -10.786703
v 7.449959 0.217175 -11.650335
v 7.449959 0.217175 -10.849662
v 6.987932 0.217175 -11.713294
v 7.449999 0.217175 -11.713294
v 6.924972 0.217175 -10.849662
v 6.924974 0.217175 -11.650335
v 7.449999 -0.000001 -11.650335
v 7.449999 -0.000000 -10.849662
v 6.987930 -0.000000 -10.849662
v 6.987932 -0.000001 -11.650335
v 7.450198 0.083396 -11.650335
v 7.450198 0.154217 -11.650335
v 7.450198 0.154217 -10.849662
v 7.450198 0.083396 -10.849662
v 6.987930 0.154217 -10.766266
v 6.987930 0.083396 -10.766266
v 7.449999 0.083396 -10.766266
v 7.449999 0.154217 -10.766266
v 6.904537 0.154217 -11.650335
v 6.904537 0.083396 -11.650335
v 6.904535 0.083396 -10.849662
v 6.904535 0.154217 -10.849662
v 6.987932 0.083396 -11.733731
v 6.987932 0.154217 -11.733731
v 7.449999 0.154217 -11.733731
v 7.449999 0.083396 -11.733731
v 6.987930 0.237613 -10.849662
v 7.449999 0.237613 -10.849662
v 7.449999 0.237613 -11.650335
v 6.987932 0.237613 -11.650335
vn -0.305210 0.151121 0.940218
vn -0.151123 0.305208 0.940218
vn -0.940220 0.305209 0.151109
vn -0.940220 0.151110 0.305208
vn -0.151117 0.940218 0.305211
vn -0.305213 0.940218 0.151113
vn -0.940219 0.151121 -0.305207
vn -0.940218 0.305208 -0.151122
vn -0.151110 0.305209 -0.940220
vn -0.305210 0.151111 -0.940219
vn -0.305213 0.940218 -0.151116
vn -0.151114 0.940219 -0.305211
vn 0.999997 0.001189 0.001960
vn 0.999902 -0.004322 0.013315
vn 0.999991 0.003802 -0.001888
vn 0.999991 0.001888 -0.003802
vn 0.999902 -0.013315 0.004322
vn 0.999997 -0.001960 -0.001189
vn 0.999991 0.001888 0.003802
vn 0.999991 0.003802 0.001888
vn 0.999902 -0.004322 -0.013314
vn 0.999997 0.001189 -0.001960
vn 0.999997 -0.001960 0.001189
vn 0.999902 -0.013314 -0.004322
vn -0.940218 -0.305208 -0.151122
vn -0.940219 -0.151121 -0.305207
vn -0.151114 -0.940219 -0.305211
vn -0.305213 -0.940218 -0.151116
vn -0.305210 -0.151111 -0.940219
vn -0.151110 -0.305208 -0.940220
vn 0.999997 0.001960 -0.001189
vn 0.999902 0.013315 0.004322
vn 0.999991 -0.001888 -0.003802
vn 0.999991 -0.003802 -0.001888
vn 0.999902 0.004322 0.013315
vn 0.999997 -0.001189 0.001960
vn -0.151123 -0.305208 0.940218
vn -0.305210 -0.151121 0.940218
vn -0.305213 -0.940218 0.151113
vn -0.151117 -0.940218 0.305211
vn -0.940220 -0.151110 0.305208
vn -0.940220 -0.305209 0.151109
vn 0.999991 -0.003802 0.001888
vn 0.999991 -0.001888 0.003802
vn 0.999902 0.013314 -0.004322
vn 0.999997 0.001960 0.001189
vn 0.999997 -0.001189 -0.001960
vn 0.999902 0.004322 -0.013314
vn 0.305211 -0.940219 0.151113
vn 0.151116 -0.940218 0.305211
vn 0.151111 -0.940219 -0.305211
vn 0.305211 -0.940219 -0.151111
vn -0.970566 0.239242 0.027643
vn -0.858896 0.487127 0.158130
vn -0.858904 0.487114 -0.158126
vn -0.970566 0.239242 -0.027644
vn -0.999991 -0.001888 -0.003802
vn -0.999991 -0.003802 -0.001888
vn -0.999991 0.003802 -0.001888
vn -0.999991 0.001888 -0.003802
vn -0.999991 0.001888 0.003802
vn -0.999991 0.003802 0.001888
vn -0.999991 -0.003802 0.001888
vn -0.999991 -0.001888 0.003802
vn -0.970566 -0.027642 0.239245
vn -0.858889 -0.158132 0.487138
vn -0.858889 0.158132 0.487138
vn -0.970566 0.027642 0.239245
vn 0.305208 -0.151105 -0.940221
vn 0.151106 -0.305209 -0.940221
vn 0.151106 0.305209 -0.940221
vn 0.305208 0.151105 -0.940221
vn 0.940221 0.151105 -0.305208
vn 0.940221 0.305209 -0.151106
vn 0.940221 -0.305209 -0.151106
vn 0.940221 -0.151105 -0.305208
vn 0.940220 -0.151110 0.305208
vn 0.940220 -0.305209 0.151109
vn 0.940220 0.305209 0.151109
vn 0.940220 0.151110 0.305208
vn -0.970566 0.027646 -0.239245
vn -0.858913 0.158119 -0.487100
vn -0.858913 -0.158120 -0.487100
vn -0.970566 -0.027646 -0.239245
vn 0.305207 0.151121 0.940219
vn 0.151122 0.305208 0.940218
vn 0.151122 -0.305208 0.940218
vn 0.305207 -0.151121 0.940219
vn 0.151116 0.940218 0.305211
vn 0.305211 0.940219 0.151113
vn -0.970566 -0.239242 -0.027644
vn -0.858904 -0.487115 -0.158126
vn -0.858896 -0.487127 0.158130
vn -0.970566 -0.239242 0.027643
vn 0.305211 0.940219 -0.151111
vn 0.151111 0.940219 -0.305211
vn -0.951142 0.308754 -0.000002
vn -0.308759 0.951140 -0.000001
vn 0.000000 0.308754 -0.951142
vn 0.000000 0.951141 -0.308756
vn 0.999993 0.003802 -0.000000
vn 0.999998 -0.001960 0.000000
vn 0.000000 0.308754 0.951142
vn 0.000000 0.951141 0.308756
vn 0.000000 -0.951141 -0.308756
vn 0.000000 -0.308754 -0.951142
vn 0.999998 0.000000 0.001960
vn 0.999993 0.000000 -0.003802
vn -0.951142 0.000000 -0.308753
vn -0.308756 0.000000 -0.951141
vn -0.951142 0.000000 0.308753
vn -0.308756 0.000000 0.951141
vn -0.308759 -0.951140 -0.000001
vn -0.951142 -0.308754 -0.000002
vn 0.999993 0.000000 0.003802
vn 0.999998 0.000000 -0.001960
vn 0.000000 -0.951141 0.308756
vn 0.000000 -0.308754 0.951142
vn 0.999993 -0.003802 0.000000
vn 0.999998 0.001960 -0.000000
vn 0.308756 -0.951141 0.000001
vn -0.970937 0.239334 -0.000000
vn -0.999993 -0.003802 0.000000
vn -0.999993 0.000000 -0.003802
vn -0.999993 0.003802 -0.000000
vn -0.999993 0.000000 0.003802
vn -0.970937 0.000000 0.239336
vn 0.308753 0.000000 -0.951142
vn 0.951142 0.308754 0.000002
vn 0.951142 0.000000 -0.308753
vn 0.951142 -0.308754 0.000002
vn 0.951142 0.000000 0.308753
vn -0.970937 0.000000 -0.239336
vn 0.308753 0.000000 0.951142
vn 0.308756 0.951141 0.000001
vn -0.970937 -0.239334 0.000000
vn 0.000000 1.000000 -0.000000
vn 0.000000 0.000000 -1.000000
vn -1.000000 0.000000 -0.000002
vn 0.000000 0.000000 1.000000
vn 1.000000 0.000000 0.000000
vn 0.000000 -1.000000 0.000000
vn -1.000000 0.000000 0.000000
vn 1.000000 0.000000 0.000002
usemtl Material.001
s off
f 64//1 74//1 97//1
f 64//2 97//2 82//2
f 64//3 87//3 104//3
f 64//4 104//4 74//4
f 64//5 82//5 109//5
f 64//6 109//6 87//6
f 63//7 75//7 101//7
f 63//8 101//8 88//8
f 63//9 85//9 106//9
f 63//10 106//10 75//10
f 63//11 88//11 112//11
f 63//12 112//12 85//12
f 62//13 77//13 107//13
f 62//14 107//14 86//14
f 62//15 83//15 94//15
f 62//16 94//16 77//16
f 62//17 86//17 111//17
f 62//18 111//18 83//18
f 61//19 69//19 95//19
f 61//20 95//20 84//20
f 61//21 81//21 100//21
f 61//22 100//22 69//22
f 61//23 84//23 110//23
f 61//24 110//24 81//24
f 60//25 72//25 102//25
f 60//26 102//26 76//26
f 60//27 79//27 92//27
f 60//28 92//28 72//28
f 60//29 76//29 105//29
f 60//30 105//30 79//30
f 59//31 66//31 89//31
f 59//32 89//32 80//32
f 59//33 78//33 93//33
f 59//34 93//34 66//34
f 59//35 80//35 108//35
f 59//36 108//36 78//36
f 58//37 68//37 98//37
f 58//38 98//38 73//38
f 58//39 71//39 91//39
f 58//40 91//40 68//40
f 58//41 73//41 103//41
f 58//42 103//42 71//42
f 57//43 65//43 96//43
f 57//44 96//44 70//44
f 57//45 67//45 90//45
f 57//46 90//46 65//46
f 57//47 70//47 99//47
f 57//48 99//48 67//48
f 24//49 42//49 53//49
f 24//50 53//50 33//50
f 23//51 46//51 55//51
f 23//52 55//52 41//52
f 22//53 47//53 56//53
f 22//54 56//54 45//54
f 21//55 34//55 54//55
f 21//56 54//56 48//56
f 20//57 44//57 56//57
f 20//58 56//58 47//58
f 19//59 30//59 52//59
f 19//60 52//60 43//60
f 18//61 35//61 51//61
f 18//62 51//62 29//62
f 17//63 48//63 54//63
f 17//64 54//64 36//64
f 16//65 43//65 52//65
f 16//66 52//66 31//66
f 15//67 45//67 56//67
f 15//68 56//68 44//68
f 14//69 39//69 55//69
f 14//70 55//70 46//70
f 13//71 32//71 49//71
f 13//72 49//72 40//72
f 12//73 40//73 49//73
f 12//74 49//74 25//74
f 11//75 41//75 55//75
f 11//76 55//76 39//76
f 10//77 38//77 53//77
f 10//78 53//78 42//78
f 9//79 26//79 50//79
f 9//80 50//80 37//80
f 8//81 36//81 54//81
f 8//82 54//82 34//82
f 7//83 28//83 51//83
f 7//84 51//84 35//84
f 6//85 37//85 50//85
f 6//86 50//86 27//86
f 5//87 33//87 53//87
f 5//88 53//88 38//88
f 4//89 27//89 50//89
f 4//90 50//90 26//90
f 3//91 29//91 51//91
f 3//92 51//92 28//92
f 2//93 31//93 52//93
f 2//94 52//94 30//94
f 1//95 25//95 49//95
f 1//96 49//96 32//96
f 87//97 88//97 101//97
f 87//97 101//97 104//97
f 87//98 109//98 88//98
f 109//98 112//98 88//98
f 86//99 107//99 106//99
f 86//99 106//99 85//99
f 85//100 112//100 111//100
f 85//100 111//100 86//100
f 84//101 95//101 94//101
f 84//101 94//101 83//101
f 83//102 111//102 110//102
f 83//102 110//102 84//102
f 82//103 97//103 100//103
f 82//103 100//103 81//103
f 81//104 110//104 109//104
f 81//104 109//104 82//104
f 80//105 89//105 92//105
f 80//105 92//105 79//105
f 79//106 105//106 108//106
f 79//106 108//106 80//106
f 77//107 78//107 108//107
f 77//107 108//107 107//107
f 77//108 94//108 93//108
f 77//108 93//108 78//108
f 76//109 102//109 101//109
f 76//109 101//109 75//109
f 75//110 106//110 105//110
f 75//110 105//110 76//110
f 73//111 74//111 104//111
f 73//111 104//111 103//111
f 73//112 98//112 97//112
f 73//112 97//112 74//112
f 72//113 92//113 91//113
f 72//113 91//113 71//113
f 71//114 103//114 102//114
f 71//114 102//114 72//114
f 70//115 96//115 95//115
f 70//115 95//115 69//115
f 69//116 100//116 99//116
f 69//116 99//116 70//116
f 68//117 91//117 90//117
f 68//117 90//117 67//117
f 67//118 99//118 98//118
f 67//118 98//118 68//118
f 65//119 66//119 93//119
f 65//119 93//119 96//119
f 65//120 90//120 89//120
f 65//120 89//120 66//120
f 24//117 33//117 34//117
f 24//117 34//117 21//117
f 24//121 23//121 42//121
f 23//121 41//121 42//121
f 22//105 45//105 46//105
f 22//105 46//105 23//105
f 21//122 48//122 47//122
f 21//122 47//122 22//122
f 20//123 47//123 48//123
f 20//123 48//123 17//123
f 19//124 43//124 44//124
f 19//124 44//124 20//124
f 19//125 18//125 29//125
f 19//125 29//125 30//125
f 17//126 36//126 35//126
f 17//126 35//126 18//126
f 13//99 16//99 31//99
f 13//99 31//99 32//99
f 16//127 15//127 44//127
f 16//127 44//127 43//127
f 14//106 46//106 45//106
f 14//106 45//106 15//106
f 13//128 40//128 39//128
f 13//128 39//128 14//128
f 12//129 25//129 26//129
f 12//129 26//129 9//129
f 11//130 39//130 40//130
f 11//130 40//130 12//130
f 11//131 10//131 42//131
f 11//131 42//131 41//131
f 10//132 9//132 37//132
f 10//132 37//132 38//132
f 5//118 8//118 34//118
f 5//118 34//118 33//118
f 7//133 35//133 36//133
f 7//133 36//133 8//133
f 6//103 27//103 28//103
f 6//103 28//103 7//103
f 6//134 5//134 38//134
f 6//134 38//134 37//134
f 25//135 1//135 26//135
f 1//135 4//135 26//135
f 4//104 3//104 28//104
f 4//104 28//104 27//104
f 2//136 30//136 29//136
f 2//136 29//136 3//136
f 2//100 1//100 32//100
f 2//100 32//100 31//100
f 109//137 110//137 112//137
f 110//137 111//137 112//137
f 105//138 106//138 107//138
f 105//138 107//138 108//138
f 101//139 102//139 103//139
f 101//139 103//139 104//139
f 97//140 98//140 99//140
f 97//140 99//140 100//140
f 93//141 94//141 95//141
f 93//141 95//141 96//141
f 89//142 90//142 92//142
f 90//142 91//142 92//142
f 21//142 22//142 24//142
f 22//142 23//142 24//142
f 17//143 18//143 19//143
f 17//143 19//143 20//143
f 13//138 14//138 15//138
f 13//138 15//138 16//138
f 9//144 10//144 11//144
f 9//144 11//144 12//144
f 5//140 6//140 7//140
f 5//140 7//140 8//140
f 1//137 2//137 4//137
f 2//137 3//137 4//137
v 15.005801 0.245012 -0.674746
v 13.751997 0.245012 -0.674746
v 13.751997 0.245012 -0.033950
v 15.005801 0.245012 -0.033950
v 15.007138 0.166570 -0.674746
v 15.007138 0.166570 -0.033950
v 15.007138 0.078442 -0.033950
v 15.007138 0.078442 -0.674746
v 15.005801 0.166570 -0.039521
v 13.751997 0.166570 -0.039521
v 13.751997 0.078442 -0.039521
v 15.005801 0.078442 -0.039521
v 13.673554 0.166570 -0.033950
v 13.673554 0.166570 -0.674746
v 13.673554 0.078442 -0.674746
v 13.673554 0.078442 -0.033950
v 13.751997 0.166570 -0.753189
v 14.999921 0.166570 -0.753189
v 15.006331 0.078442 -0.752950
v 13.751997 0.078442 -0.753189
v 13.751997 -0.000000 -0.033950
v 13.751997 -0.000000 -0.674746
v 15.005801 -0.000000 -0.674746
v 15.005801 -0.000000 -0.033950
v 0.000070 0.245014 -0.033950
v 0.000070 0.245013 -0.674746
v 1.253873 0.245013 -0.674746
v 1.253873 0.245013 -0.033950
v 1.253873 0.166571 -0.753189
v -0.000460 0.166571 -0.752950
v 0.005950 0.078443 -0.753189
v 1.253873 0.078443 -0.753189
v 1.332317 0.166571 -0.033950
v 1.332317 0.166571 -0.674746
v 1.332317 0.078443 -0.674746
v 1.332317 0.078443 -0.033950
v 0.000070 0.166571 -0.039521
v 1.253873 0.166571 -0.039521
v 1.253873 0.078443 -0.039521
v 0.000070 0.078443 -0.039521
v -0.001267 0.166571 -0.674746
v -0.001267 0.166571 -0.033950
v -0.001267 0.078443 -0.033950
v -0.001267 0.078443 -0.674746
v 0.000070 0.000001 -0.033950
v 1.253873 0.000001 -0.033950
v 1.253873 0.000001 -0.674746
v 0.000070 0.000001 -0.674746
v 0.001666 -0.000001 -22.396297
v 0.001665 -0.000001 -21.755505
v 1.255469 -0.000001 -21.755505
v 1.255469 -0.000001 -22.396297
v 1.255469 0.078441 -21.677063
v 0.001134 0.078441 -21.677299
v 0.007547 0.166569 -21.677059
v 1.255469 0.166569 -21.677063
v 1.333911 0.078441 -22.396297
v 1.333911 0.078441 -21.755505
v 1.333911 0.166569 -21.755505
v 1.333911 0.166569 -22.396297
v 0.001666 0.078441 -22.390728
v 1.255469 0.078441 -22.390728
v 1.255469 0.166569 -22.390728
v 0.001666 0.166569 -22.390728
v 0.000328 0.078441 -21.755505
v 0.000328 0.078441 -22.396297
v 0.000328 0.166569 -22.396297
v 0.000328 0.166569 -21.755505
v 0.001666 0.245011 -22.396297
v 1.255469 0.245011 -22.396297
v 1.255469 0.245011 -21.755505
v 0.001665 0.245011 -21.755505
v 14.998620 -0.000001 -21.755505
v 13.744815 -0.000001 -21.755505
v 13.744815 -0.000001 -22.396297
v 14.998619 -0.000001 -22.396297
v 14.999957 0.078441 -21.755505
v 14.999957 0.078441 -22.396297
v 14.999957 0.166569 -22.396297
v 14.999957 0.166569 -21.755505
v 14.998619 0.078441 -22.390728
v 13.744815 0.078441 -22.390728
v 13.744815 0.166569 -22.390728
v 14.998619 0.166569 -22.390728
v 13.666373 0.078441 -22.396297
v 13.666373 0.078441 -21.755505
v 13.666373 0.166569 -21.755505
v 13.666373 0.166569 -22.396297
v 13.744815 0.078441 -21.677063
v 14.992739 0.078441 -21.677059
v 14.999151 0.166569 -21.677299
v 13.744815 0.166569 -21.677063
v 13.744815 0.245011 -22.396297
v 13.744815 0.245011 -21.755505
v 14.998620 0.245011 -21.755505
v 14.998619 0.245011 -22.396297
vn 0.995650 0.016971 -0.091609
vn -0.577350 0.577352 -0.577350
vn 0.070657 -0.070657 0.994995
vn -0.972248 -0.016572 0.233366
vn -0.972248 0.016572 0.233366
vn 0.999802 -0.017042 -0.010315
vn 0.070657 0.070657 0.994995
vn -0.577350 -0.577352 -0.577350
vn 0.577345 0.577354 -0.577352
vn -0.070656 -0.070657 0.994995
vn -0.999802 0.017042 -0.010315
vn 0.972248 -0.016572 0.233366
vn 0.972248 0.016572 0.233366
vn -0.070656 0.070657 0.994995
vn 0.577345 -0.577354 -0.577352
vn -0.995650 -0.016971 -0.091609
vn 0.577352 -0.577347 0.577352
vn -0.070646 0.070645 -0.994997
vn -0.999802 -0.017042 0.010302
vn 0.972201 0.016583 -0.233561
vn 0.972201 -0.016583 -0.233561
vn -0.070646 -0.070645 -0.994997
vn 0.577352 0.577347 0.577352
vn -0.995650 0.016971 0.091617
vn 0.995650 -0.016971 0.091617
vn -0.577352 -0.577347 0.577352
vn 0.070646 0.070645 -0.994997
vn -0.972201 0.016583 -0.233561
vn -0.972201 -0.016583 -0.233561
vn 0.999802 0.017042 0.010302
vn 0.070646 -0.070645 -0.994997
vn -0.577352 0.577347 0.577352
vn 0.000134 0.706036 0.708176
vn 0.000000 0.707104 0.707110
vn -0.707110 0.707104 -0.000000
vn -0.707107 0.000000 0.707107
vn -0.000000 -0.070822 -0.997489
vn 0.070823 0.000000 -0.997489
vn 0.999947 0.000000 0.010304
vn 0.993207 -0.072020 0.091393
vn 0.999855 0.017055 -0.000001
vn 0.999855 0.017043 -0.000000
vn -0.972334 0.000000 -0.233593
vn 0.999855 -0.017055 -0.000001
vn 0.999855 -0.017043 0.000000
vn 0.000000 0.070822 -0.997489
vn -0.707110 -0.707104 0.000000
vn -0.000000 -0.707121 0.707093
vn -0.000002 -0.707104 0.707110
vn -0.000003 0.000000 1.000000
vn 0.000189 0.002713 0.999996
vn 0.000003 0.000000 1.000000
vn -0.000189 -0.002713 0.999996
vn 0.000000 0.707121 0.707093
vn 0.000002 0.707104 0.707110
vn 0.707110 0.707104 -0.000000
vn -0.999855 0.017055 -0.000001
vn -0.999855 0.017043 -0.000000
vn 0.972334 0.000000 -0.233593
vn -0.999855 -0.017055 -0.000001
vn -0.999855 -0.017043 0.000000
vn -0.999947 0.000000 0.010304
vn -0.993207 0.072020 0.091393
vn -0.070823 0.000000 -0.997489
vn 0.707107 0.000000 0.707107
vn 0.707110 -0.707104 0.000000
vn -0.000134 -0.706036 0.708176
vn -0.000000 -0.707104 0.707110
vn -0.000190 0.002692 -0.999996
vn -0.000000 -0.707108 -0.707105
vn -0.000000 -0.707108 -0.707106
vn 0.707101 -0.707112 0.000000
vn 0.000000 0.070835 0.997488
vn 0.972381 0.000000 0.233398
vn -0.999947 0.000000 -0.010316
vn -0.993209 -0.072001 -0.091384
vn -0.070833 0.000000 0.997488
vn -0.000000 -0.070834 0.997488
vn 0.707102 0.000000 -0.707111
vn 0.707101 0.707112 -0.000000
vn -0.000134 0.706031 -0.708180
vn 0.000000 0.707108 -0.707106
vn 0.000135 -0.706031 -0.708180
vn -0.707106 -0.707108 0.000000
vn -0.707107 0.000000 -0.707107
vn 0.070834 0.000000 0.997488
vn 0.999947 0.000000 -0.010316
vn 0.993209 0.072001 -0.091384
vn -0.972381 0.000000 0.233398
vn -0.707105 0.707108 -0.000000
vn 0.000000 0.707108 -0.707105
vn 0.000190 -0.002692 -0.999996
usemtl Material.001
s off
f 113//145 117//145 130//145
f 114//146 129//146 126//146
f 115//147 125//147 122//147
f 116//148 121//148 118//148
f 119//149 124//149 136//149
f 120//150 135//150 131//150
f 123//151 128//151 133//151
f 127//152 132//152 134//152
f 146//153 141//153 139//153
f 150//154 145//154 140//154
f 153//155 138//155 142//155
f 154//156 149//156 137//156
f 157//157 152//157 155//157
f 158//158 148//158 151//158
f 159//159 144//159 147//159
f 160//160 156//160 143//160
f 170//161 165//161 163//161
f 174//162 169//162 164//162
f 177//163 162//163 166//163
f 178//164 173//164 161//164
f 181//165 176//165 179//165
f 182//166 172//166 175//166
f 183//167 168//167 171//167
f 184//168 180//168 167//168
f 185//169 189//169 202//169
f 186//170 201//170 198//170
f 187//171 197//171 194//171
f 188//172 193//172 190//172
f 191//173 196//173 208//173
f 192//174 207//174 203//174
f 195//175 200//175 205//175
f 199//176 204//176 206//176
f 203//177 207//177 204//177
f 207//178 206//178 204//178
f 199//179 206//179 205//179
f 199//179 205//179 200//179
f 198//180 201//180 204//180
f 198//180 204//180 199//180
f 195//181 205//181 208//181
f 195//181 208//181 196//181
f 194//182 197//182 200//182
f 194//182 200//182 195//182
f 189//183 192//183 203//183
f 189//184 203//184 202//184
f 191//185 208//185 207//185
f 191//186 207//186 192//186
f 190//187 193//187 196//187
f 190//187 196//187 191//187
f 185//188 188//188 190//188
f 185//189 190//189 189//189
f 187//190 194//190 193//190
f 187//190 193//190 188//190
f 186//191 198//191 197//191
f 186//191 197//191 187//191
f 186//192 185//192 202//192
f 186//193 202//193 201//193
f 205//137 206//137 208//137
f 206//137 207//137 208//137
f 201//194 202//194 204//194
f 202//195 203//195 204//195
f 197//143 198//143 199//143
f 197//143 199//143 200//143
f 193//138 194//138 195//138
f 193//138 195//138 196//138
f 189//141 190//141 191//141
f 189//141 191//141 192//141
f 185//142 186//142 188//142
f 186//142 187//142 188//142
f 184//137 183//137 181//137
f 183//137 182//137 181//137
f 180//143 179//143 178//143
f 180//143 178//143 177//143
f 176//138 175//138 174//138
f 176//138 174//138 173//138
f 172//141 171//141 170//141
f 172//141 170//141 169//141
f 168//196 167//196 165//196
f 167//197 166//197 165//197
f 164//142 163//142 161//142
f 163//142 162//142 161//142
f 183//198 184//198 167//198
f 183//199 167//199 168//199
f 183//200 171//200 172//200
f 183//200 172//200 182//200
f 182//181 175//181 176//181
f 182//181 176//181 181//181
f 184//201 181//201 179//201
f 184//202 179//202 180//202
f 179//203 176//203 173//203
f 179//203 173//203 178//203
f 178//204 161//204 162//204
f 178//205 162//205 177//205
f 180//206 177//206 166//206
f 180//207 166//207 167//207
f 175//208 172//208 169//208
f 175//208 169//208 174//208
f 174//190 164//190 161//190
f 174//190 161//190 173//190
f 171//209 168//209 165//209
f 171//209 165//209 170//209
f 170//210 163//210 164//210
f 170//210 164//210 169//210
f 166//211 162//211 165//211
f 162//212 163//212 165//212
f 160//142 159//142 158//142
f 160//142 158//142 157//142
f 156//143 155//143 154//143
f 156//143 154//143 153//143
f 152//140 151//140 150//140
f 152//140 150//140 149//140
f 148//141 147//141 146//141
f 148//141 146//141 145//141
f 144//138 143//138 141//138
f 143//213 142//213 141//213
f 140//137 139//137 138//137
f 140//137 138//137 137//137
f 159//214 160//214 143//214
f 159//215 143//215 144//215
f 159//216 147//216 148//216
f 159//216 148//216 158//216
f 158//217 151//217 152//217
f 158//217 152//217 157//217
f 160//205 157//205 155//205
f 160//205 155//205 156//205
f 155//218 152//218 149//218
f 155//218 149//218 154//218
f 154//202 137//202 138//202
f 154//202 138//202 153//202
f 156//219 153//219 142//219
f 156//220 142//220 143//220
f 151//221 148//221 145//221
f 151//221 145//221 150//221
f 150//222 140//222 137//222
f 150//222 137//222 149//222
f 147//223 144//223 141//223
f 147//223 141//223 146//223
f 146//224 139//224 140//224
f 146//224 140//224 145//224
f 142//225 138//225 141//225
f 138//226 139//226 141//226
f 131//227 135//227 132//227
f 135//215 134//215 132//215
f 127//228 134//228 133//228
f 127//228 133//228 128//228
f 126//229 129//229 132//229
f 126//229 132//229 127//229
f 123//217 133//217 136//217
f 123//217 136//217 124//217
f 122//230 125//230 128//230
f 122//230 128//230 123//230
f 117//231 120//231 131//231
f 117//232 131//232 130//232
f 119//189 136//189 135//189
f 119//189 135//189 120//189
f 118//233 121//233 124//233
f 118//233 124//233 119//233
f 113//186 116//186 118//186
f 113//186 118//186 117//186
f 115//222 122//222 121//222
f 115//222 121//222 116//222
f 114//234 126//234 125//234
f 114//234 125//234 115//234
f 114//235 113//235 130//235
f 114//235 130//235 129//235
f 133//142 134//142 135//142
f 133//142 135//142 136//142
f 129//138 130//138 132//138
f 130//236 131//236 132//236
f 125//143 126//143 127//143
f 125//143 127//143 128//143
f 121//140 122//140 123//140
f 121//140 123//140 124//140
f 117//141 118//141 119//141
f 117//141 119//141 120//141
f 113//137 114//137 115//137
f 113//137 115//137 116//137
