# Blender3D v245 OBJ File: BIROLATERALa.blend
# www.blender3d.org
mtllib BIROLATERALa.mtl
v -0.001483 -3.404742 -0.150001
v -0.001483 -3.404742 -8.000000
v -0.001483 -9.049224 -7.999998
v -0.001483 -9.049224 -0.149999
v -0.001483 -3.249000 -0.149999
v -0.001483 -3.249000 -8.000000
v -0.001483 -0.099224 -7.999998
v -0.001483 -0.099223 -0.150001
v 0.198474 -0.099223 -0.150000
v 0.198474 -0.099224 -7.999998
v 0.198474 -3.249000 -8.000000
v 0.198474 -3.249000 -0.149999
v 0.198474 -9.049224 -0.149999
v 0.198474 -9.049224 -7.999998
v 0.198474 -3.404742 -8.000000
v 0.198474 -3.404742 -0.150000
vn -1.000000 0.000000 0.000000
vn 0.000000 0.000000 1.000000
vn 0.000000 -1.000000 0.000000
vn 0.000006 -0.000000 -1.000000
vn 0.000000 -0.000000 -1.000000
vn 0.000000 1.000000 0.000000
vn 0.000006 -0.000001 -1.000000
vn 1.000000 0.000000 0.000000
usemtl Material
s off
f 9//1 10//1 12//1
f 10//1 11//1 12//1
f 16//1 15//1 14//1
f 16//1 14//1 13//1
f 2//2 3//2 14//2
f 2//2 14//2 15//2
f 1//3 2//3 15//3
f 1//3 15//3 16//3
f 4//4 1//4 16//4
f 4//5 16//5 13//5
f 3//6 4//6 13//6
f 3//6 13//6 14//6
f 6//6 5//6 12//6
f 6//6 12//6 11//6
f 5//7 8//7 9//7
f 5//5 9//5 12//5
f 8//3 7//3 10//3
f 8//3 10//3 9//3
f 7//2 6//2 11//2
f 7//2 11//2 10//2
f 6//8 7//8 8//8
f 6//8 8//8 5//8
f 1//8 4//8 3//8
f 1//8 3//8 2//8
