# Blender OBJ File: /home/flash/doc/book/codigos/janela.blend
# www.blender.org
mtllib janela.mtl
o Curve_Porta
v -100.043045044 76.2793655396 -6.34025621414
v -100.043045044 -76.2973937988 -6.34025621414
v -105.917976379 -76.2973937988 -6.34025621414
v -105.917976379 76.2793655396 -6.34025621414
v -105.917976379 76.2793655396 5.67228889465
v -105.917976379 -76.2973937988 5.67228889465
v -100.043045044 -76.2973937988 5.67228889465
v -100.043045044 76.2793655396 5.67228889465
v 105.854560852 76.2793655396 5.67228889465
v 105.854560852 -76.2724380493 5.67228889465
v 99.9796295166 -76.2724380493 5.67228889465
v 99.9796295166 76.2793655396 5.67228889465
v 99.9796295166 76.2793655396 -6.34025621414
v 99.9796295166 -76.2724380493 -6.34025621414
v 105.854560852 -76.2724380493 -6.34025621414
v 105.854560852 76.2793655396 -6.34025621414
v -100.043045044 76.2793807983 -6.34025621414
v 99.9796447754 76.2793655396 -6.34025621414
v 99.9796447754 74.1206741333 -6.34025621414
v -100.043045044 74.1206893921 -6.34025621414
v -100.043045044 74.1206893921 5.67228889465
v 99.9796447754 74.1206741333 5.67228889465
v 99.9796447754 76.2793655396 5.67228889465
v -100.043045044 76.2793807983 5.67228889465
v -100.043045044 -74.1686019897 5.67228889465
v 99.9796447754 -74.1686096191 5.67228889465
v 99.9796447754 -76.2903671265 5.67228889465
v -100.043045044 -76.2903671265 5.67228889465
v -100.043045044 -76.2903671265 -6.34025621414
v 99.9796447754 -76.2903671265 -6.34025621414
v 99.9796447754 -74.1686096191 -6.34025621414
v -100.043045044 -74.1686019897 -6.34025621414
vn 0.0 0.0 -1.0
vn 0.0 0.0 -1.0
vn 0.0 0.0 -1.0
vn 0.0 0.0 -1.0
vn -1.0 0.0 0.0
vn -1.0 0.0 0.0
vn -1.0 0.0 0.0
vn -1.0 0.0 0.0
vn 0.0 1.0 0.0
vn 0.0 1.0 0.0
vn 0.0 1.0 0.0
vn 0.0 1.0 0.0
vn 1.0 0.0 0.0
vn 1.0 0.0 0.0
vn 1.0 0.0 0.0
vn 1.0 0.0 0.0
vn 0.0 -1.0 0.0
vn 0.0 -1.0 0.0
vn 0.0 -1.0 0.0
vn 0.0 -1.0 0.0
vn 0.0 0.0 1.0
vn 0.0 0.0 1.0
vn 0.0 0.0 1.0
vn 0.0 0.0 1.0
vn 0.0 0.0 1.0
vn 0.0 0.0 1.0
vn 0.0 0.0 1.0
vn 0.0 0.0 1.0
vn 0.0 -1.0 0.0
vn 0.0 -1.0 0.0
vn 0.0 -1.0 0.0
vn 0.0 -1.0 0.0
vn 1.0 0.0 0.0
vn 1.0 0.0 0.0
vn 1.0 0.0 0.0
vn 1.0 0.0 0.0
vn 0.0 1.0 0.0
vn 0.0 1.0 0.0
vn 0.0 1.0 0.0
vn 0.0 1.0 0.0
vn -1.0 0.0 0.0
vn -1.0 0.0 0.0
vn -1.0 0.0 0.0
vn -1.0 0.0 0.0
vn 0.0 0.0 -1.0
vn 0.0 0.0 -1.0
vn 0.0 0.0 -1.0
vn 0.0 0.0 -1.0
vn 0.0 0.0 -1.0
vn 0.0 0.0 -1.0
vn 0.0 0.0 -1.0
vn 0.0 0.0 -1.0
vn -5.95978839613e-08 -1.0 0.0
vn -5.95978839613e-08 -1.0 0.0
vn -5.95978839613e-08 -1.0 0.0
vn -5.95978839613e-08 -1.0 0.0
vn -1.0 0.0 0.0
vn -1.0 0.0 0.0
vn -1.0 0.0 0.0
vn -1.0 0.0 0.0
vn 5.95978839613e-08 1.0 0.0
vn 5.95978839613e-08 1.0 0.0
vn 5.95978839613e-08 1.0 0.0
vn 5.95978839613e-08 1.0 0.0
vn 1.0 0.0 0.0
vn 1.0 0.0 0.0
vn 1.0 0.0 0.0
vn 1.0 0.0 0.0
vn 0.0 0.0 1.0
vn 0.0 0.0 1.0
vn 0.0 0.0 1.0
vn 0.0 0.0 1.0
vn 0.0 0.0 1.0
vn 0.0 0.0 1.0
vn 0.0 0.0 1.0
vn 0.0 0.0 1.0
vn 1.0 0.0 0.0
vn 1.0 0.0 0.0
vn 1.0 0.0 0.0
vn 1.0 0.0 0.0
vn 5.95978839613e-08 1.0 0.0
vn 5.95978839613e-08 1.0 0.0
vn 5.95978839613e-08 1.0 0.0
vn 5.95978839613e-08 1.0 0.0
vn -1.0 0.0 0.0
vn -1.0 0.0 0.0
vn -1.0 0.0 0.0
vn -1.0 0.0 0.0
vn 0.0 -1.0 0.0
vn 0.0 -1.0 0.0
vn 0.0 -1.0 0.0
vn 0.0 -1.0 0.0
vn 0.0 0.0 -1.0
vn 0.0 0.0 -1.0
vn 0.0 0.0 -1.0
vn 0.0 0.0 -1.0
usemtl Marco
f 1//1 2//2 3//3 4//4 
f 3//5 6//6 5//7 4//8 
f 8//9 1//10 4//11 5//12 
f 1//13 8//14 7//15 2//16 
f 2//17 7//18 6//19 3//20 
f 8//21 5//22 6//23 7//24 
f 9//25 12//26 11//27 10//28 
f 15//29 10//30 11//31 14//32 
f 16//33 9//34 10//35 15//36 
f 13//37 12//38 9//39 16//40 
f 14//41 11//42 12//43 13//44 
f 14//45 13//46 16//47 15//48 
f 19//49 20//50 17//51 18//52 
f 19//53 22//54 21//55 20//56 
f 20//57 21//58 24//59 17//60 
f 17//61 24//62 23//63 18//64 
f 18//65 23//66 22//67 19//68 
f 24//69 21//70 22//71 23//72 
f 25//73 28//74 27//75 26//76 
f 31//77 26//78 27//79 30//80 
f 32//81 25//82 26//83 31//84 
f 29//85 28//86 25//87 32//88 
f 30//89 27//90 28//91 29//92 
f 30//93 29//94 32//95 31//96 
