# Blender OBJ File: /home/flash/tmp/blender/parede.blend
# www.blender.org
mtllib parede.mtl
o Grid_Parede
v 50.0 -50.0 0.0
v 38.8888893127 -50.0 0.0
v 27.7777786255 -50.0 0.0
v 16.6666679382 -50.0 0.0
v 5.55555725098 -50.0 0.0
v -5.55555391312 -50.0 0.0
v -16.6666660309 -50.0 0.0
v -27.7777767181 -50.0 0.0
v -38.888885498 -50.0 0.0
v -49.9999961853 -50.0 0.0
v -49.9999961853 -38.8888893127 0.0
v -38.888885498 -38.8888893127 0.0
v -27.7777767181 -38.8888893127 0.0
v -16.6666660309 -38.8888893127 0.0
v -5.55555391312 -38.8888893127 0.0
v 5.55555725098 -38.8888893127 0.0
v 16.6666679382 -38.8888893127 0.0
v 27.7777786255 -38.8888893127 0.0
v 38.8888893127 -38.8888893127 0.0
v 50.0 -38.8888893127 0.0
v 50.0 -27.7777786255 0.0
v 38.8888893127 -27.7777786255 0.0
v 27.7777786255 -27.7777786255 0.0
v 16.6666679382 -27.7777786255 0.0
v 5.55555725098 -27.7777786255 0.0
v -5.55555391312 -27.7777786255 0.0
v -16.6666660309 -27.7777786255 0.0
v -27.7777767181 -27.7777786255 0.0
v -38.888885498 -27.7777786255 0.0
v -49.9999961853 -27.7777786255 0.0
v -49.9999961853 -16.6666679382 0.0
v -38.888885498 -16.6666679382 0.0
v -27.7777767181 -16.6666679382 0.0
v -16.6666660309 -16.6666679382 0.0
v -5.55555391312 -16.6666679382 0.0
v 5.55555725098 -16.6666679382 0.0
v 16.6666679382 -16.6666679382 0.0
v 27.7777786255 -16.6666679382 0.0
v 38.8888893127 -16.6666679382 0.0
v 50.0 -16.6666679382 0.0
v 50.0 -5.55555725098 0.0
v 38.8888893127 -5.55555725098 0.0
v 27.7777786255 -5.55555725098 0.0
v 16.6666679382 -5.55555725098 0.0
v 5.55555725098 -5.55555725098 0.0
v -5.55555391312 -5.55555725098 0.0
v -16.6666660309 -5.55555725098 0.0
v -27.7777767181 -5.55555725098 0.0
v -38.888885498 -5.55555725098 0.0
v -49.9999961853 -5.55555725098 0.0
v -49.9999961853 5.55555391312 0.0
v -38.888885498 5.55555391312 0.0
v -27.7777767181 5.55555391312 0.0
v -16.6666660309 5.55555391312 0.0
v -5.55555391312 5.55555391312 0.0
v 5.55555725098 5.55555391312 0.0
v 16.6666679382 5.55555391312 0.0
v 27.7777786255 5.55555391312 0.0
v 38.8888893127 5.55555391312 0.0
v 50.0 5.55555391312 0.0
v 50.0 16.6666660309 0.0
v 38.8888893127 16.6666660309 0.0
v 27.7777786255 16.6666660309 0.0
v 16.6666679382 16.6666660309 0.0
v 5.55555725098 16.6666660309 0.0
v -5.55555391312 16.6666660309 0.0
v -16.6666660309 16.6666660309 0.0
v -27.7777767181 16.6666660309 0.0
v -38.888885498 16.6666660309 0.0
v -49.9999961853 16.6666660309 0.0
v -49.9999961853 27.7777767181 0.0
v -38.888885498 27.7777767181 0.0
v -27.7777767181 27.7777767181 0.0
v -16.6666660309 27.7777767181 0.0
v -5.55555391312 27.7777767181 0.0
v 5.55555725098 27.7777767181 0.0
v 16.6666679382 27.7777767181 0.0
v 27.7777786255 27.7777767181 0.0
v 38.8888893127 27.7777767181 0.0
v 50.0 27.7777767181 0.0
v 50.0 38.888885498 0.0
v 38.8888893127 38.888885498 0.0
v 27.7777786255 38.888885498 0.0
v 16.6666679382 38.888885498 0.0
v 5.55555725098 38.888885498 0.0
v -5.55555391312 38.888885498 0.0
v -16.6666660309 38.888885498 0.0
v -27.7777767181 38.888885498 0.0
v -38.888885498 38.888885498 0.0
v -49.9999961853 38.888885498 0.0
v -49.9999961853 49.9999961853 0.0
v -38.888885498 49.9999961853 0.0
v -27.7777767181 49.9999961853 0.0
v -16.6666660309 49.9999961853 0.0
v -5.55555391312 49.9999961853 0.0
v 5.55555725098 49.9999961853 0.0
v 16.6666679382 49.9999961853 0.0
v 27.7777786255 49.9999961853 0.0
v 38.8888893127 49.9999961853 0.0
v 50.0 49.9999961853 0.0
vt 0.0 8.94069600577e-08 0.0
vt 0.11111111939 8.94069600577e-08 0.0
vt 0.11111111939 0.111111178994 0.0
vt 0.0 0.111111178994 0.0
vt 0.11111111939 8.94069600577e-08 0.0
vt 0.222222208977 8.94069600577e-08 0.0
vt 0.222222208977 0.111111178994 0.0
vt 0.11111111939 0.111111178994 0.0
vt 0.222222208977 8.94069600577e-08 0.0
vt 0.333333313465 5.960463767e-08 0.0
vt 0.333333313465 0.111111149192 0.0
vt 0.222222208977 0.111111178994 0.0
vt 0.333333313465 5.960463767e-08 0.0
vt 0.444444417953 5.960463767e-08 0.0
vt 0.444444417953 0.111111149192 0.0
vt 0.333333313465 0.111111149192 0.0
vt 0.444444417953 5.960463767e-08 0.0
vt 0.555555522442 5.960463767e-08 0.0
vt 0.555555522442 0.111111149192 0.0
vt 0.444444417953 0.111111149192 0.0
vt 0.555555522442 5.960463767e-08 0.0
vt 0.66666662693 5.960463767e-08 0.0
vt 0.66666662693 0.111111149192 0.0
vt 0.555555522442 0.111111149192 0.0
vt 0.66666662693 5.960463767e-08 0.0
vt 0.777777731419 5.960463767e-08 0.0
vt 0.777777731419 0.11111111939 0.0
vt 0.66666662693 0.111111149192 0.0
vt 0.777777731419 5.960463767e-08 0.0
vt 0.888888835907 0.0 0.0
vt 0.888888835907 0.11111111939 0.0
vt 0.777777731419 0.11111111939 0.0
vt 0.888888835907 0.0 0.0
vt 0.999999940395 0.0 0.0
vt 0.999999940395 0.11111111939 0.0
vt 0.888888835907 0.11111111939 0.0
vt 0.999999940395 0.11111111939 0.0
vt 0.999999940395 0.222222208977 0.0
vt 0.888888835907 0.222222208977 0.0
vt 0.888888835907 0.11111111939 0.0
vt 0.888888835907 0.11111111939 0.0
vt 0.888888835907 0.222222208977 0.0
vt 0.777777731419 0.222222208977 0.0
vt 0.777777731419 0.11111111939 0.0
vt 0.777777731419 0.11111111939 0.0
vt 0.777777731419 0.222222208977 0.0
vt 0.66666662693 0.222222238779 0.0
vt 0.66666662693 0.111111149192 0.0
vt 0.66666662693 0.111111149192 0.0
vt 0.66666662693 0.222222238779 0.0
vt 0.555555522442 0.222222238779 0.0
vt 0.555555522442 0.111111149192 0.0
vt 0.555555522442 0.111111149192 0.0
vt 0.555555522442 0.222222238779 0.0
vt 0.444444417953 0.222222238779 0.0
vt 0.444444417953 0.111111149192 0.0
vt 0.444444417953 0.111111149192 0.0
vt 0.444444417953 0.222222238779 0.0
vt 0.333333313465 0.222222238779 0.0
vt 0.333333313465 0.111111149192 0.0
vt 0.333333313465 0.111111149192 0.0
vt 0.333333313465 0.222222238779 0.0
vt 0.222222208977 0.222222268581 0.0
vt 0.222222208977 0.111111178994 0.0
vt 0.222222208977 0.111111178994 0.0
vt 0.222222208977 0.222222268581 0.0
vt 0.11111111939 0.222222268581 0.0
vt 0.11111111939 0.111111178994 0.0
vt 0.11111111939 0.111111178994 0.0
vt 0.11111111939 0.222222268581 0.0
vt 5.960463767e-08 0.222222268581 0.0
vt 0.0 0.111111178994 0.0
vt 5.960463767e-08 0.222222268581 0.0
vt 0.11111111939 0.222222268581 0.0
vt 0.111111149192 0.33333337307 0.0
vt 5.960463767e-08 0.333333402872 0.0
vt 0.11111111939 0.222222268581 0.0
vt 0.222222208977 0.222222268581 0.0
vt 0.222222238779 0.33333337307 0.0
vt 0.111111149192 0.33333337307 0.0
vt 0.222222208977 0.222222268581 0.0
vt 0.333333313465 0.222222238779 0.0
vt 0.333333343267 0.33333337307 0.0
vt 0.222222238779 0.33333337307 0.0
vt 0.333333313465 0.222222238779 0.0
vt 0.444444417953 0.222222238779 0.0
vt 0.444444447756 0.333333343267 0.0
vt 0.333333343267 0.33333337307 0.0
vt 0.444444417953 0.222222238779 0.0
vt 0.555555522442 0.222222238779 0.0
vt 0.555555522442 0.333333343267 0.0
vt 0.444444447756 0.333333343267 0.0
vt 0.555555522442 0.222222238779 0.0
vt 0.66666662693 0.222222238779 0.0
vt 0.66666662693 0.333333343267 0.0
vt 0.555555522442 0.333333343267 0.0
vt 0.66666662693 0.222222238779 0.0
vt 0.777777731419 0.222222208977 0.0
vt 0.777777731419 0.333333313465 0.0
vt 0.66666662693 0.333333343267 0.0
vt 0.777777731419 0.222222208977 0.0
vt 0.888888835907 0.222222208977 0.0
vt 0.888888835907 0.333333313465 0.0
vt 0.777777731419 0.333333313465 0.0
vt 0.888888835907 0.222222208977 0.0
vt 0.999999940395 0.222222208977 0.0
vt 0.999999940395 0.333333313465 0.0
vt 0.888888835907 0.333333313465 0.0
vt 0.999999940395 0.333333313465 0.0
vt 0.999999940395 0.444444388151 0.0
vt 0.888888835907 0.444444417953 0.0
vt 0.888888835907 0.333333313465 0.0
vt 0.888888835907 0.333333313465 0.0
vt 0.888888835907 0.444444417953 0.0
vt 0.777777731419 0.444444417953 0.0
vt 0.777777731419 0.333333313465 0.0
vt 0.777777731419 0.333333313465 0.0
vt 0.777777731419 0.444444417953 0.0
vt 0.66666662693 0.444444417953 0.0
vt 0.66666662693 0.333333343267 0.0
vt 0.66666662693 0.333333343267 0.0
vt 0.66666662693 0.444444417953 0.0
vt 0.555555522442 0.444444447756 0.0
vt 0.555555522442 0.333333343267 0.0
vt 0.555555522442 0.333333343267 0.0
vt 0.555555522442 0.444444447756 0.0
vt 0.444444447756 0.444444447756 0.0
vt 0.444444447756 0.333333343267 0.0
vt 0.444444447756 0.333333343267 0.0
vt 0.444444447756 0.444444447756 0.0
vt 0.333333343267 0.444444447756 0.0
vt 0.333333343267 0.33333337307 0.0
vt 0.333333343267 0.33333337307 0.0
vt 0.333333343267 0.444444447756 0.0
vt 0.222222238779 0.444444477558 0.0
vt 0.222222238779 0.33333337307 0.0
vt 0.222222238779 0.33333337307 0.0
vt 0.222222238779 0.444444477558 0.0
vt 0.111111149192 0.444444477558 0.0
vt 0.111111149192 0.33333337307 0.0
vt 0.111111149192 0.33333337307 0.0
vt 0.111111149192 0.444444477558 0.0
vt 5.960463767e-08 0.444444477558 0.0
vt 5.960463767e-08 0.333333402872 0.0
vt 5.960463767e-08 0.444444477558 0.0
vt 0.111111149192 0.444444477558 0.0
vt 0.111111149192 0.555555582047 0.0
vt 5.960463767e-08 0.555555582047 0.0
vt 0.111111149192 0.444444477558 0.0
vt 0.222222238779 0.444444477558 0.0
vt 0.222222238779 0.555555582047 0.0
vt 0.111111149192 0.555555582047 0.0
vt 0.222222238779 0.444444477558 0.0
vt 0.333333343267 0.444444447756 0.0
vt 0.333333343267 0.555555582047 0.0
vt 0.222222238779 0.555555582047 0.0
vt 0.333333343267 0.444444447756 0.0
vt 0.444444447756 0.444444447756 0.0
vt 0.444444447756 0.555555522442 0.0
vt 0.333333343267 0.555555582047 0.0
vt 0.444444447756 0.444444447756 0.0
vt 0.555555522442 0.444444447756 0.0
vt 0.555555582047 0.555555522442 0.0
vt 0.444444447756 0.555555522442 0.0
vt 0.555555522442 0.444444447756 0.0
vt 0.66666662693 0.444444417953 0.0
vt 0.66666662693 0.555555522442 0.0
vt 0.555555582047 0.555555522442 0.0
vt 0.66666662693 0.444444417953 0.0
vt 0.777777731419 0.444444417953 0.0
vt 0.777777731419 0.555555522442 0.0
vt 0.66666662693 0.555555522442 0.0
vt 0.777777731419 0.444444417953 0.0
vt 0.888888835907 0.444444417953 0.0
vt 0.888888835907 0.555555522442 0.0
vt 0.777777731419 0.555555522442 0.0
vt 0.888888835907 0.444444417953 0.0
vt 0.999999940395 0.444444388151 0.0
vt 0.999999940395 0.555555522442 0.0
vt 0.888888835907 0.555555522442 0.0
vt 0.999999940395 0.555555522442 0.0
vt 0.999999940395 0.66666662693 0.0
vt 0.888888835907 0.66666662693 0.0
vt 0.888888835907 0.555555522442 0.0
vt 0.888888835907 0.555555522442 0.0
vt 0.888888835907 0.66666662693 0.0
vt 0.777777731419 0.66666662693 0.0
vt 0.777777731419 0.555555522442 0.0
vt 0.777777731419 0.555555522442 0.0
vt 0.777777731419 0.66666662693 0.0
vt 0.666666686535 0.66666662693 0.0
vt 0.66666662693 0.555555522442 0.0
vt 0.66666662693 0.555555522442 0.0
vt 0.666666686535 0.66666662693 0.0
vt 0.555555582047 0.66666662693 0.0
vt 0.555555582047 0.555555522442 0.0
vt 0.555555582047 0.555555522442 0.0
vt 0.555555582047 0.66666662693 0.0
vt 0.444444477558 0.66666662693 0.0
vt 0.444444447756 0.555555522442 0.0
vt 0.444444447756 0.555555522442 0.0
vt 0.444444477558 0.66666662693 0.0
vt 0.33333337307 0.666666686535 0.0
vt 0.333333343267 0.555555582047 0.0
vt 0.333333343267 0.555555582047 0.0
vt 0.33333337307 0.666666686535 0.0
vt 0.222222238779 0.666666686535 0.0
vt 0.222222238779 0.555555582047 0.0
vt 0.222222238779 0.555555582047 0.0
vt 0.222222238779 0.666666686535 0.0
vt 0.111111149192 0.666666686535 0.0
vt 0.111111149192 0.555555582047 0.0
vt 0.111111149192 0.555555582047 0.0
vt 0.111111149192 0.666666686535 0.0
vt 5.960463767e-08 0.666666686535 0.0
vt 5.960463767e-08 0.555555582047 0.0
vt 5.960463767e-08 0.666666686535 0.0
vt 0.111111149192 0.666666686535 0.0
vt 0.111111178994 0.777777791023 0.0
vt 8.94069600577e-08 0.777777791023 0.0
vt 0.111111149192 0.666666686535 0.0
vt 0.222222238779 0.666666686535 0.0
vt 0.222222268581 0.777777791023 0.0
vt 0.111111178994 0.777777791023 0.0
vt 0.222222238779 0.666666686535 0.0
vt 0.33333337307 0.666666686535 0.0
vt 0.33333337307 0.777777731419 0.0
vt 0.222222268581 0.777777791023 0.0
vt 0.33333337307 0.666666686535 0.0
vt 0.444444477558 0.66666662693 0.0
vt 0.444444477558 0.777777731419 0.0
vt 0.33333337307 0.777777731419 0.0
vt 0.444444477558 0.66666662693 0.0
vt 0.555555582047 0.66666662693 0.0
vt 0.555555582047 0.777777731419 0.0
vt 0.444444477558 0.777777731419 0.0
vt 0.555555582047 0.66666662693 0.0
vt 0.666666686535 0.66666662693 0.0
vt 0.666666686535 0.777777731419 0.0
vt 0.555555582047 0.777777731419 0.0
vt 0.666666686535 0.66666662693 0.0
vt 0.777777731419 0.66666662693 0.0
vt 0.777777791023 0.777777731419 0.0
vt 0.666666686535 0.777777731419 0.0
vt 0.777777731419 0.66666662693 0.0
vt 0.888888835907 0.66666662693 0.0
vt 0.888888895512 0.777777731419 0.0
vt 0.777777791023 0.777777731419 0.0
vt 0.888888835907 0.66666662693 0.0
vt 0.999999940395 0.66666662693 0.0
vt 0.999999940395 0.777777731419 0.0
vt 0.888888895512 0.777777731419 0.0
vt 0.999999940395 0.777777731419 0.0
vt 1.0 0.888888835907 0.0
vt 0.888888895512 0.888888835907 0.0
vt 0.888888895512 0.777777731419 0.0
vt 0.888888895512 0.777777731419 0.0
vt 0.888888895512 0.888888835907 0.0
vt 0.777777791023 0.888888835907 0.0
vt 0.777777791023 0.777777731419 0.0
vt 0.777777791023 0.777777731419 0.0
vt 0.777777791023 0.888888835907 0.0
vt 0.666666686535 0.888888835907 0.0
vt 0.666666686535 0.777777731419 0.0
vt 0.666666686535 0.777777731419 0.0
vt 0.666666686535 0.888888835907 0.0
vt 0.555555582047 0.888888835907 0.0
vt 0.555555582047 0.777777731419 0.0
vt 0.555555582047 0.777777731419 0.0
vt 0.555555582047 0.888888835907 0.0
vt 0.444444477558 0.888888835907 0.0
vt 0.444444477558 0.777777731419 0.0
vt 0.444444477558 0.777777731419 0.0
vt 0.444444477558 0.888888835907 0.0
vt 0.33333337307 0.888888835907 0.0
vt 0.33333337307 0.777777731419 0.0
vt 0.33333337307 0.777777731419 0.0
vt 0.33333337307 0.888888835907 0.0
vt 0.222222268581 0.888888895512 0.0
vt 0.222222268581 0.777777791023 0.0
vt 0.222222268581 0.777777791023 0.0
vt 0.222222268581 0.888888895512 0.0
vt 0.111111178994 0.888888895512 0.0
vt 0.111111178994 0.777777791023 0.0
vt 0.111111178994 0.777777791023 0.0
vt 0.111111178994 0.888888895512 0.0
vt 8.94069600577e-08 0.888888895512 0.0
vt 8.94069600577e-08 0.777777791023 0.0
vt 8.94069600577e-08 0.888888895512 0.0
vt 0.111111178994 0.888888895512 0.0
vt 0.111111178994 1.0 0.0
vt 8.94069600577e-08 1.0 0.0
vt 0.111111178994 0.888888895512 0.0
vt 0.222222268581 0.888888895512 0.0
vt 0.222222268581 0.999999940395 0.0
vt 0.111111178994 1.0 0.0
vt 0.222222268581 0.888888895512 0.0
vt 0.33333337307 0.888888835907 0.0
vt 0.333333402872 0.999999940395 0.0
vt 0.222222268581 0.999999940395 0.0
vt 0.33333337307 0.888888835907 0.0
vt 0.444444477558 0.888888835907 0.0
vt 0.44444450736 0.999999940395 0.0
vt 0.333333402872 0.999999940395 0.0
vt 0.444444477558 0.888888835907 0.0
vt 0.555555582047 0.888888835907 0.0
vt 0.555555582047 0.999999940395 0.0
vt 0.44444450736 0.999999940395 0.0
vt 0.555555582047 0.888888835907 0.0
vt 0.666666686535 0.888888835907 0.0
vt 0.666666686535 0.999999940395 0.0
vt 0.555555582047 0.999999940395 0.0
vt 0.666666686535 0.888888835907 0.0
vt 0.777777791023 0.888888835907 0.0
vt 0.777777791023 0.999999940395 0.0
vt 0.666666686535 0.999999940395 0.0
vt 0.777777791023 0.888888835907 0.0
vt 0.888888895512 0.888888835907 0.0
vt 0.888888895512 0.999999940395 0.0
vt 0.777777791023 0.999999940395 0.0
vt 0.888888895512 0.888888835907 0.0
vt 1.0 0.888888835907 0.0
vt 1.0 0.999999940395 0.0
vt 0.888888895512 0.999999940395 0.0
vn 0.0 0.0 1.0
vn 0.0 0.0 1.0
vn 0.0 0.0 1.0
vn 0.0 0.0 1.0
vn 0.0 0.0 1.0
vn 0.0 0.0 1.0
vn 0.0 0.0 1.0
vn 0.0 0.0 1.0
vn 0.0 0.0 1.0
vn 0.0 0.0 1.0
vn 0.0 0.0 1.0
vn 0.0 0.0 1.0
vn 0.0 0.0 1.0
vn 0.0 0.0 1.0
vn 0.0 0.0 1.0
vn 0.0 0.0 1.0
vn 0.0 0.0 1.0
vn 0.0 0.0 1.0
vn 0.0 0.0 1.0
vn 0.0 0.0 1.0
vn 0.0 0.0 1.0
vn 0.0 0.0 1.0
vn 0.0 0.0 1.0
vn 0.0 0.0 1.0
vn 0.0 0.0 1.0
vn 0.0 0.0 1.0
vn 0.0 0.0 1.0
vn 0.0 0.0 1.0
vn 0.0 0.0 1.0
vn 0.0 0.0 1.0
vn 0.0 0.0 1.0
vn 0.0 0.0 1.0
vn 0.0 0.0 1.0
vn 0.0 0.0 1.0
vn 0.0 0.0 1.0
vn 0.0 0.0 1.0
vn 0.0 0.0 1.0
vn 0.0 0.0 1.0
vn 0.0 0.0 1.0
vn 0.0 0.0 1.0
vn 0.0 0.0 1.0
vn 0.0 0.0 1.0
vn 0.0 0.0 1.0
vn 0.0 0.0 1.0
vn 0.0 0.0 1.0
vn 0.0 0.0 1.0
vn 0.0 0.0 1.0
vn 0.0 0.0 1.0
vn 0.0 0.0 1.0
vn 0.0 0.0 1.0
vn 0.0 0.0 1.0
vn 0.0 0.0 1.0
vn 0.0 0.0 1.0
vn 0.0 0.0 1.0
vn 0.0 0.0 1.0
vn 0.0 0.0 1.0
vn 0.0 0.0 1.0
vn 0.0 0.0 1.0
vn 0.0 0.0 1.0
vn 0.0 0.0 1.0
vn 0.0 0.0 1.0
vn 0.0 0.0 1.0
vn 0.0 0.0 1.0
vn 0.0 0.0 1.0
vn 0.0 0.0 1.0
vn 0.0 0.0 1.0
vn 0.0 0.0 1.0
vn 0.0 0.0 1.0
vn 0.0 0.0 1.0
vn 0.0 0.0 1.0
vn 0.0 0.0 1.0
vn 0.0 0.0 1.0
vn 0.0 0.0 1.0
vn 0.0 0.0 1.0
vn 0.0 0.0 1.0
vn 0.0 0.0 1.0
vn 0.0 0.0 1.0
vn 0.0 0.0 1.0
vn 0.0 0.0 1.0
vn 0.0 0.0 1.0
vn 0.0 0.0 1.0
vn 0.0 0.0 1.0
vn 0.0 0.0 1.0
vn 0.0 0.0 1.0
vn 0.0 0.0 1.0
vn 0.0 0.0 1.0
vn 0.0 0.0 1.0
vn 0.0 0.0 1.0
vn 0.0 0.0 1.0
vn 0.0 0.0 1.0
vn 0.0 0.0 1.0
vn 0.0 0.0 1.0
vn 0.0 0.0 1.0
vn 0.0 0.0 1.0
vn 0.0 0.0 1.0
vn 0.0 0.0 1.0
vn 0.0 0.0 1.0
vn 0.0 0.0 1.0
vn 0.0 0.0 1.0
vn 0.0 0.0 1.0
vn 0.0 0.0 1.0
vn 0.0 0.0 1.0
vn 0.0 0.0 1.0
vn 0.0 0.0 1.0
vn 0.0 0.0 1.0
vn 0.0 0.0 1.0
vn 0.0 0.0 1.0
vn 0.0 0.0 1.0
vn 0.0 0.0 1.0
vn 0.0 0.0 1.0
vn 0.0 0.0 1.0
vn 0.0 0.0 1.0
vn 0.0 0.0 1.0
vn 0.0 0.0 1.0
vn 0.0 0.0 1.0
vn 0.0 0.0 1.0
vn 0.0 0.0 1.0
vn 0.0 0.0 1.0
vn 0.0 0.0 1.0
vn 0.0 0.0 1.0
vn 0.0 0.0 1.0
vn 0.0 0.0 1.0
vn 0.0 0.0 1.0
vn 0.0 0.0 1.0
vn 0.0 0.0 1.0
vn 0.0 0.0 1.0
vn 0.0 0.0 1.0
vn 0.0 0.0 1.0
vn 0.0 0.0 1.0
vn 0.0 0.0 1.0
vn 0.0 0.0 1.0
vn 0.0 0.0 1.0
vn 0.0 0.0 1.0
vn 0.0 0.0 1.0
vn 0.0 0.0 1.0
vn 0.0 0.0 1.0
vn 0.0 0.0 1.0
vn 0.0 0.0 1.0
vn 0.0 0.0 1.0
vn 0.0 0.0 1.0
vn 0.0 0.0 1.0
vn 0.0 0.0 1.0
vn 0.0 0.0 1.0
vn 0.0 0.0 1.0
vn 0.0 0.0 1.0
vn 0.0 0.0 1.0
vn 0.0 0.0 1.0
vn 0.0 0.0 1.0
vn 0.0 0.0 1.0
vn 0.0 0.0 1.0
vn 0.0 0.0 1.0
vn 0.0 0.0 1.0
vn 0.0 0.0 1.0
vn 0.0 0.0 1.0
vn 0.0 0.0 1.0
vn 0.0 0.0 1.0
vn 0.0 0.0 1.0
vn 0.0 0.0 1.0
vn 0.0 0.0 1.0
vn 0.0 0.0 1.0
vn 0.0 0.0 1.0
vn 0.0 0.0 1.0
vn 0.0 0.0 1.0
vn 0.0 0.0 1.0
vn 0.0 0.0 1.0
vn 0.0 0.0 1.0
vn 0.0 0.0 1.0
vn 0.0 0.0 1.0
vn 0.0 0.0 1.0
vn 0.0 0.0 1.0
vn 0.0 0.0 1.0
vn 0.0 0.0 1.0
vn 0.0 0.0 1.0
vn 0.0 0.0 1.0
vn 0.0 0.0 1.0
vn 0.0 0.0 1.0
vn 0.0 0.0 1.0
vn 0.0 0.0 1.0
vn 0.0 0.0 1.0
vn 0.0 0.0 1.0
vn 0.0 0.0 1.0
vn 0.0 0.0 1.0
vn 0.0 0.0 1.0
vn 0.0 0.0 1.0
vn 0.0 0.0 1.0
vn 0.0 0.0 1.0
vn 0.0 0.0 1.0
vn 0.0 0.0 1.0
vn 0.0 0.0 1.0
vn 0.0 0.0 1.0
vn 0.0 0.0 1.0
vn 0.0 0.0 1.0
vn 0.0 0.0 1.0
vn 0.0 0.0 1.0
vn 0.0 0.0 1.0
vn 0.0 0.0 1.0
vn 0.0 0.0 1.0
vn 0.0 0.0 1.0
vn 0.0 0.0 1.0
vn 0.0 0.0 1.0
vn 0.0 0.0 1.0
vn 0.0 0.0 1.0
vn 0.0 0.0 1.0
vn 0.0 0.0 1.0
vn 0.0 0.0 1.0
vn 0.0 0.0 1.0
vn 0.0 0.0 1.0
vn 0.0 0.0 1.0
vn 0.0 0.0 1.0
vn 0.0 0.0 1.0
vn 0.0 0.0 1.0
vn 0.0 0.0 1.0
vn 0.0 0.0 1.0
vn 0.0 0.0 1.0
vn 0.0 0.0 1.0
vn 0.0 0.0 1.0
vn 0.0 0.0 1.0
vn 0.0 0.0 1.0
vn 0.0 0.0 1.0
vn 0.0 0.0 1.0
vn 0.0 0.0 1.0
vn 0.0 0.0 1.0
vn 0.0 0.0 1.0
vn 0.0 0.0 1.0
vn 0.0 0.0 1.0
vn 0.0 0.0 1.0
vn 0.0 0.0 1.0
vn 0.0 0.0 1.0
vn 0.0 0.0 1.0
vn 0.0 0.0 1.0
vn 0.0 0.0 1.0
vn 0.0 0.0 1.0
vn 0.0 0.0 1.0
vn 0.0 0.0 1.0
vn 0.0 0.0 1.0
vn 0.0 0.0 1.0
vn 0.0 0.0 1.0
vn 0.0 0.0 1.0
vn 0.0 0.0 1.0
vn 0.0 0.0 1.0
vn 0.0 0.0 1.0
vn 0.0 0.0 1.0
vn 0.0 0.0 1.0
vn 0.0 0.0 1.0
vn 0.0 0.0 1.0
vn 0.0 0.0 1.0
vn 0.0 0.0 1.0
vn 0.0 0.0 1.0
vn 0.0 0.0 1.0
vn 0.0 0.0 1.0
vn 0.0 0.0 1.0
vn 0.0 0.0 1.0
vn 0.0 0.0 1.0
vn 0.0 0.0 1.0
vn 0.0 0.0 1.0
vn 0.0 0.0 1.0
vn 0.0 0.0 1.0
vn 0.0 0.0 1.0
vn 0.0 0.0 1.0
vn 0.0 0.0 1.0
vn 0.0 0.0 1.0
vn 0.0 0.0 1.0
vn 0.0 0.0 1.0
vn 0.0 0.0 1.0
vn 0.0 0.0 1.0
vn 0.0 0.0 1.0
vn 0.0 0.0 1.0
vn 0.0 0.0 1.0
vn 0.0 0.0 1.0
vn 0.0 0.0 1.0
vn 0.0 0.0 1.0
vn 0.0 0.0 1.0
vn 0.0 0.0 1.0
vn 0.0 0.0 1.0
vn 0.0 0.0 1.0
vn 0.0 0.0 1.0
vn 0.0 0.0 1.0
vn 0.0 0.0 1.0
vn 0.0 0.0 1.0
vn 0.0 0.0 1.0
vn 0.0 0.0 1.0
vn 0.0 0.0 1.0
vn 0.0 0.0 1.0
vn 0.0 0.0 1.0
vn 0.0 0.0 1.0
vn 0.0 0.0 1.0
vn 0.0 0.0 1.0
vn 0.0 0.0 1.0
vn 0.0 0.0 1.0
vn 0.0 0.0 1.0
vn 0.0 0.0 1.0
vn 0.0 0.0 1.0
vn 0.0 0.0 1.0
vn 0.0 0.0 1.0
vn 0.0 0.0 1.0
vn 0.0 0.0 1.0
vn 0.0 0.0 1.0
vn 0.0 0.0 1.0
vn 0.0 0.0 1.0
vn 0.0 0.0 1.0
vn 0.0 0.0 1.0
vn 0.0 0.0 1.0
vn 0.0 0.0 1.0
vn 0.0 0.0 1.0
vn 0.0 0.0 1.0
vn 0.0 0.0 1.0
vn 0.0 0.0 1.0
vn 0.0 0.0 1.0
vn 0.0 0.0 1.0
vn 0.0 0.0 1.0
vn 0.0 0.0 1.0
vn 0.0 0.0 1.0
vn 0.0 0.0 1.0
vn 0.0 0.0 1.0
vn 0.0 0.0 1.0
vn 0.0 0.0 1.0
vn 0.0 0.0 1.0
vn 0.0 0.0 1.0
vn 0.0 0.0 1.0
vn 0.0 0.0 1.0
vn 0.0 0.0 1.0
vn 0.0 0.0 1.0
vn 0.0 0.0 1.0
vn 0.0 0.0 1.0
#usemtl Material
#usemat (null)
f 10/1/1 9/2/2 12/3/3 11/4/4 
f 9/5/5 8/6/6 13/7/7 12/8/8 
f 8/9/9 7/10/10 14/11/11 13/12/12 
f 7/13/13 6/14/14 15/15/15 14/16/16 
f 6/17/17 5/18/18 16/19/19 15/20/20 
f 5/21/21 4/22/22 17/23/23 16/24/24 
f 4/25/25 3/26/26 18/27/27 17/28/28 
f 3/29/29 2/30/30 19/31/31 18/32/32 
f 2/33/33 1/34/34 20/35/35 19/36/36 
f 20/37/37 21/38/38 22/39/39 19/40/40 
f 19/41/41 22/42/42 23/43/43 18/44/44 
f 18/45/45 23/46/46 24/47/47 17/48/48 
f 17/49/49 24/50/50 25/51/51 16/52/52 
f 16/53/53 25/54/54 26/55/55 15/56/56 
f 15/57/57 26/58/58 27/59/59 14/60/60 
f 14/61/61 27/62/62 28/63/63 13/64/64 
f 13/65/65 28/66/66 29/67/67 12/68/68 
f 12/69/69 29/70/70 30/71/71 11/72/72 
f 30/73/73 29/74/74 32/75/75 31/76/76 
f 29/77/77 28/78/78 33/79/79 32/80/80 
f 28/81/81 27/82/82 34/83/83 33/84/84 
f 27/85/85 26/86/86 35/87/87 34/88/88 
f 26/89/89 25/90/90 36/91/91 35/92/92 
f 25/93/93 24/94/94 37/95/95 36/96/96 
f 24/97/97 23/98/98 38/99/99 37/100/100 
f 23/101/101 22/102/102 39/103/103 38/104/104 
f 22/105/105 21/106/106 40/107/107 39/108/108 
f 40/109/109 41/110/110 42/111/111 39/112/112 
f 39/113/113 42/114/114 43/115/115 38/116/116 
f 38/117/117 43/118/118 44/119/119 37/120/120 
f 37/121/121 44/122/122 45/123/123 36/124/124 
f 36/125/125 45/126/126 46/127/127 35/128/128 
f 35/129/129 46/130/130 47/131/131 34/132/132 
f 34/133/133 47/134/134 48/135/135 33/136/136 
f 33/137/137 48/138/138 49/139/139 32/140/140 
f 32/141/141 49/142/142 50/143/143 31/144/144 
f 50/145/145 49/146/146 52/147/147 51/148/148 
f 49/149/149 48/150/150 53/151/151 52/152/152 
f 48/153/153 47/154/154 54/155/155 53/156/156 
f 47/157/157 46/158/158 55/159/159 54/160/160 
f 46/161/161 45/162/162 56/163/163 55/164/164 
f 45/165/165 44/166/166 57/167/167 56/168/168 
f 44/169/169 43/170/170 58/171/171 57/172/172 
f 43/173/173 42/174/174 59/175/175 58/176/176 
f 42/177/177 41/178/178 60/179/179 59/180/180 
f 60/181/181 61/182/182 62/183/183 59/184/184 
f 59/185/185 62/186/186 63/187/187 58/188/188 
f 58/189/189 63/190/190 64/191/191 57/192/192 
f 57/193/193 64/194/194 65/195/195 56/196/196 
f 56/197/197 65/198/198 66/199/199 55/200/200 
f 55/201/201 66/202/202 67/203/203 54/204/204 
f 54/205/205 67/206/206 68/207/207 53/208/208 
f 53/209/209 68/210/210 69/211/211 52/212/212 
f 52/213/213 69/214/214 70/215/215 51/216/216 
f 70/217/217 69/218/218 72/219/219 71/220/220 
f 69/221/221 68/222/222 73/223/223 72/224/224 
f 68/225/225 67/226/226 74/227/227 73/228/228 
f 67/229/229 66/230/230 75/231/231 74/232/232 
f 66/233/233 65/234/234 76/235/235 75/236/236 
f 65/237/237 64/238/238 77/239/239 76/240/240 
f 64/241/241 63/242/242 78/243/243 77/244/244 
f 63/245/245 62/246/246 79/247/247 78/248/248 
f 62/249/249 61/250/250 80/251/251 79/252/252 
f 80/253/253 81/254/254 82/255/255 79/256/256 
f 79/257/257 82/258/258 83/259/259 78/260/260 
f 78/261/261 83/262/262 84/263/263 77/264/264 
f 77/265/265 84/266/266 85/267/267 76/268/268 
f 76/269/269 85/270/270 86/271/271 75/272/272 
f 75/273/273 86/274/274 87/275/275 74/276/276 
f 74/277/277 87/278/278 88/279/279 73/280/280 
f 73/281/281 88/282/282 89/283/283 72/284/284 
f 72/285/285 89/286/286 90/287/287 71/288/288 
f 90/289/289 89/290/290 92/291/291 91/292/292 
f 89/293/293 88/294/294 93/295/295 92/296/296 
f 88/297/297 87/298/298 94/299/299 93/300/300 
f 87/301/301 86/302/302 95/303/303 94/304/304 
f 86/305/305 85/306/306 96/307/307 95/308/308 
f 85/309/309 84/310/310 97/311/311 96/312/312 
f 84/313/313 83/314/314 98/315/315 97/316/316 
f 83/317/317 82/318/318 99/319/319 98/320/320 
f 82/321/321 81/322/322 100/323/323 99/324/324 
