# Blender3D v245 OBJ File: JANELAb.blend
# www.blender3d.org
mtllib JANELAb.mtl
v 0.416000 -0.519000 -11.602000
v 0.416000 -0.519000 -0.402010
v 5.616001 -0.519000 -0.402001
v 5.616001 -0.519000 -11.602000
v 5.616001 -0.519000 -11.602000
v 5.616001 -0.519000 -0.402001
v 0.416000 -0.519000 -0.402010
v 0.416000 -0.519000 -11.602000
v 0.416000 -0.331883 -11.602000
v 0.416000 -0.331883 -0.402010
v 5.616001 -0.331883 -0.402001
v 5.616001 -0.331883 -11.602000
vn 0.000000 -1.000000 0.000000
vn 0.000002 0.000000 -1.000000
vn -1.000000 0.000000 0.000000
vn 0.000000 0.000000 1.000000
vn 1.000000 0.000000 0.000000
vn 0.000000 0.000000 0.000000
vn 0.000000 1.000000 -0.000000
usemtl Material
s off
f 10//1 9//1 12//1
f 10//1 12//1 11//1
f 6//2 7//2 10//2
f 6//2 10//2 11//2
f 5//3 6//3 12//3
f 6//3 11//3 12//3
f 8//4 5//4 12//4
f 8//4 12//4 9//4
f 7//5 8//5 10//5
f 8//5 9//5 10//5
f 2//6 1//6 8//6
f 2//6 8//6 7//6
f 1//6 4//6 5//6
f 1//6 5//6 8//6
f 4//6 3//6 6//6
f 4//6 6//6 5//6
f 3//6 2//6 7//6
f 3//6 7//6 6//6
f 4//7 1//7 2//7
f 4//7 2//7 3//7
