# Blender3D v245 OBJ File: ARCa.blend
# www.blender3d.org
mtllib ARCa.mtl
v 1.807323 -0.561275 -3.368628
v 1.807323 -0.741218 -3.368628
v 5.887089 -0.741218 -3.368628
v 5.887089 -0.561275 -3.368628
v 5.887089 -0.561275 -3.327118
v 5.887089 -0.741218 -3.327118
v 1.807323 -0.741218 -3.327118
v 1.807323 -0.561275 -3.327118
v 1.807323 -0.602680 -3.231118
v 1.807323 -0.782623 -3.231118
v 5.887089 -0.782623 -3.231118
v 5.887089 -0.602680 -3.231118
v 5.887089 -0.602680 -3.272628
v 5.887089 -0.782623 -3.272628
v 1.807323 -0.782623 -3.272628
v 1.807323 -0.602680 -3.272628
v 1.807323 -0.638359 -3.176628
v 1.807323 -0.818303 -3.176628
v 5.887089 -0.818303 -3.176628
v 5.887089 -0.638359 -3.176628
v 5.887089 -0.638359 -3.135118
v 5.887089 -0.818303 -3.135118
v 1.807323 -0.818303 -3.135118
v 1.807323 -0.638359 -3.135118
v 1.807323 -0.660035 -3.039118
v 1.807323 -0.839978 -3.039118
v 5.887089 -0.839978 -3.039118
v 5.887089 -0.660035 -3.039118
v 5.887089 -0.660035 -3.080628
v 5.887089 -0.839978 -3.080628
v 1.807323 -0.839978 -3.080628
v 1.807323 -0.660035 -3.080628
v 1.807323 -0.639690 -2.984628
v 1.807323 -0.819633 -2.984628
v 5.887089 -0.819633 -2.984628
v 5.887089 -0.639690 -2.984628
v 5.887089 -0.639690 -2.943118
v 5.887089 -0.819633 -2.943118
v 1.807323 -0.819633 -2.943118
v 1.807323 -0.639690 -2.943118
v 1.807323 -0.607545 -2.847118
v 1.807323 -0.787488 -2.847118
v 5.887089 -0.787488 -2.847118
v 5.887089 -0.607545 -2.847118
v 5.887089 -0.607545 -2.888628
v 5.887089 -0.787488 -2.888628
v 1.807323 -0.787488 -2.888628
v 1.807323 -0.607545 -2.888628
v 1.807323 -0.567907 -2.792629
v 1.807323 -0.747850 -2.792629
v 5.887089 -0.747850 -2.792629
v 5.887089 -0.567907 -2.792629
v 5.887089 -0.567907 -2.751118
v 5.887089 -0.747850 -2.751118
v 1.807323 -0.747850 -2.751118
v 1.807323 -0.567907 -2.751118
vn 0.000000 0.000000 -1.000000
vn -1.000000 0.000000 0.000000
vn -0.000000 -1.000000 0.000000
vn 1.000000 0.000000 0.000000
vn 0.000000 1.000000 0.000000
vn 0.000000 1.000000 -0.000006
vn 0.000000 0.000000 1.000000
usemtl Material
s off
f 56//1 53//1 54//1
f 56//1 54//1 55//1
f 54//2 53//2 52//2
f 54//2 52//2 51//2
f 53//3 56//3 49//3
f 53//3 49//3 52//3
f 56//4 55//4 49//4
f 55//4 50//4 49//4
f 55//5 54//5 51//5
f 55//6 51//6 50//6
f 49//7 50//7 51//7
f 49//7 51//7 52//7
f 48//7 47//7 46//7
f 48//7 46//7 45//7
f 42//5 43//5 46//5
f 42//5 46//5 47//5
f 41//4 42//4 47//4
f 41//4 47//4 48//4
f 44//3 41//3 48//3
f 44//3 48//3 45//3
f 43//2 44//2 45//2
f 43//2 45//2 46//2
f 41//1 44//1 43//1
f 41//1 43//1 42//1
f 40//1 37//1 38//1
f 40//1 38//1 39//1
f 38//2 37//2 36//2
f 38//2 36//2 35//2
f 37//3 40//3 33//3
f 37//3 33//3 36//3
f 40//4 39//4 34//4
f 40//4 34//4 33//4
f 39//5 38//5 35//5
f 39//5 35//5 34//5
f 33//7 34//7 35//7
f 33//7 35//7 36//7
f 32//7 31//7 30//7
f 32//7 30//7 29//7
f 26//5 27//5 30//5
f 26//5 30//5 31//5
f 25//4 26//4 31//4
f 25//4 31//4 32//4
f 28//3 25//3 32//3
f 28//3 32//3 29//3
f 27//2 28//2 29//2
f 27//2 29//2 30//2
f 25//1 28//1 27//1
f 25//1 27//1 26//1
f 24//1 21//1 22//1
f 24//1 22//1 23//1
f 22//2 21//2 20//2
f 22//2 20//2 19//2
f 21//3 24//3 17//3
f 21//3 17//3 20//3
f 24//4 23//4 18//4
f 24//4 18//4 17//4
f 23//5 22//5 19//5
f 23//5 19//5 18//5
f 17//7 18//7 19//7
f 17//7 19//7 20//7
f 16//7 15//7 14//7
f 16//7 14//7 13//7
f 10//5 11//5 14//5
f 10//5 14//5 15//5
f 9//4 10//4 15//4
f 9//4 15//4 16//4
f 12//3 9//3 16//3
f 12//3 16//3 13//3
f 11//2 12//2 13//2
f 11//2 13//2 14//2
f 9//1 12//1 11//1
f 9//1 11//1 10//1
f 8//1 5//1 6//1
f 8//1 6//1 7//1
f 6//2 5//2 4//2
f 6//2 4//2 3//2
f 1//3 4//3 5//3
f 1//3 5//3 8//3
f 2//4 1//4 8//4
f 2//4 8//4 7//4
f 7//5 6//5 3//5
f 7//5 3//5 2//5
f 1//7 2//7 3//7
f 1//7 3//7 4//7
