# Blender3D v243 OBJ File: TETOb.blend
# www.blender3d.org
mtllib TETOb.mtl
v 5.939412 0.016527 -11.226411
v 5.939412 0.016527 -0.301830
v 0.129861 0.016527 -0.301830
v 0.129861 0.016527 -11.226413
v 0.129861 1.008157 -11.226413
v 0.129861 1.008157 -0.301830
v 5.939412 1.008157 -0.301830
v 5.939412 1.008157 -11.226411
v 3.816069 1.008157 -11.123164
v 3.816069 1.008157 -0.405076
v 2.253204 1.008157 -0.405076
v 2.253204 1.008157 -11.123166
v 2.487634 0.185682 -11.123166
v 2.487634 0.185682 -0.405076
v 3.581639 0.185682 -0.405076
v 3.581639 0.185682 -11.123164
vn 0.000000 -1.000000 0.000000
vn 0.000000 0.000000 1.000000
vn 0.961698 -0.274112 0.000000
vn 0.000001 -0.000000 -1.000000
vn 0.000002 0.000000 -1.000000
vn -0.961698 -0.274112 0.000000
vn 0.000000 -0.000000 -1.000000
vn -1.000000 0.000000 0.000000
vn 1.000000 0.000000 0.000000
vn 0.000000 1.000000 -0.000000
usemtl Material.001
s 1
f 16//1 15//1 14//1
f 16//1 14//1 13//1
f 10//2 11//2 14//2
f 10//2 14//2 15//2
f 9//3 10//3 15//3
f 9//3 15//3 16//3
f 12//4 9//4 16//4
f 12//5 16//5 13//5
f 11//6 12//6 13//6
f 11//6 13//6 14//6
f 6//1 5//1 12//1
f 6//1 12//1 11//1
f 5//1 8//1 12//1
f 8//1 9//1 12//1
f 8//1 7//1 9//1
f 7//1 10//1 9//1
f 7//1 6//1 11//1
f 7//1 11//1 10//1
f 2//7 3//7 7//7
f 3//7 6//7 7//7
f 1//8 2//8 8//8
f 2//8 7//8 8//8
f 4//2 1//2 5//2
f 1//2 8//2 5//2
f 3//9 4//9 6//9
f 4//9 5//9 6//9
f 1//10 4//10 3//10
f 1//10 3//10 2//10
