# Blender3D v245 OBJ File: BIROCENTRALb.blend
# www.blender3d.org
mtllib BIROCENTRALb.mtl
o Circle.002_Circle.004
v 0.216338 0.002223 -8.602678
v 0.216338 -0.036693 -8.822906
v 0.216338 -0.075140 -8.967082
v 0.216338 -0.117653 -9.094427
v 0.216338 -0.165630 -9.205148
v 0.216338 -0.238131 -9.334879
v 0.216338 -0.333501 -9.466183
v 0.216338 -0.429813 -9.559162
v 0.216338 -0.516867 -9.634268
v 0.216338 -0.621608 -9.704900
v 0.216338 -0.706418 -9.742081
v 0.216338 -0.773165 -9.772241
v 0.216338 -0.857883 -9.794278
v 0.216338 -0.964091 -9.819232
v 0.216338 -1.077777 -9.832495
v 0.216338 -3.238105 0.006044
v 0.216338 0.000841 0.000181
v 0.216338 -1.077777 -8.602677
v 0.000339 -1.078330 -8.602578
v 0.000339 0.000288 0.000280
v 0.000339 -3.238105 0.006044
v 0.000339 -3.238106 -9.832396
v 0.000339 -1.078330 -9.832396
v 0.000339 -0.964644 -9.819133
v 0.000339 -0.858436 -9.794178
v 0.000339 -0.773718 -9.772141
v 0.000339 -0.706971 -9.741981
v 0.000338 -0.622161 -9.704801
v 0.000339 -0.517421 -9.634169
v 0.000339 -0.430368 -9.559063
v 0.000339 -0.334054 -9.466084
v 0.000339 -0.238685 -9.334780
v 0.000339 -0.166183 -9.205049
v 0.000339 -0.118207 -9.094328
v 0.000339 -0.075693 -8.966982
v 0.000339 -0.037246 -8.822805
v 0.000339 0.001670 -8.602578
v 0.214848 -6.584239 -8.602578
v 0.214848 -6.545323 -8.822805
v 0.214848 -6.506876 -8.966982
v 0.214848 -6.464363 -9.094327
v 0.214848 -6.416387 -9.205049
v 0.214848 -6.343884 -9.334780
v 0.214848 -6.248515 -9.466083
v 0.214848 -6.152202 -9.559063
v 0.214848 -6.065149 -9.634168
v 0.215259 -5.960408 -9.704801
v 0.214848 -5.875598 -9.741981
v 0.214848 -5.808852 -9.772141
v 0.214848 -5.724133 -9.794178
v 0.214848 -5.617925 -9.819133
v 0.214848 -5.504240 -9.832396
v 0.216338 -3.238106 -9.832396
v 0.214848 -6.582857 0.000281
v 0.214848 -5.504240 -8.602578
v -0.001151 -5.504791 -8.602677
v -0.001151 -6.583410 0.000181
v -0.001151 -5.504792 -9.832495
v -0.001151 -5.618478 -9.819232
v -0.001151 -5.724687 -9.794278
v -0.001151 -5.809405 -9.772240
v -0.001151 -5.876152 -9.742081
v -0.000742 -5.960961 -9.704900
v -0.001151 -6.065702 -9.634267
v -0.001151 -6.152756 -9.559162
v -0.001151 -6.249068 -9.466183
v -0.001151 -6.344438 -9.334879
v -0.001151 -6.416940 -9.205148
v -0.001151 -6.464917 -9.094427
v -0.001151 -6.507430 -8.967082
v -0.001151 -6.545876 -8.822905
v -0.001151 -6.584793 -8.602677
vn -1.000000 -0.000000 -0.000000
vn 1.000000 0.000000 0.000000
vn 1.000000 -0.000004 -0.000002
vn 1.000000 0.000005 0.000002
vn -1.000000 0.000445 0.000056
vn -1.000000 0.000658 -0.000000
vn -0.999990 -0.004235 0.001380
vn -0.999995 0.002867 -0.001559
vn 1.000000 -0.000445 -0.000056
vn 1.000000 -0.000657 0.000000
vn 0.999990 0.004224 -0.001377
vn 0.999995 -0.002860 0.001555
vn -0.002602 0.984740 0.174014
vn -0.002561 0.999997 -0.000161
vn 0.000457 0.001753 -0.999998
vn 0.000000 0.001723 -0.999999
vn -0.000459 -0.000043 1.000000
vn 0.000000 0.000000 1.000000
vn -0.000753 0.115875 0.993264
vn -0.000752 0.115876 0.993263
vn -0.001037 0.228723 0.973491
vn -0.001033 0.228732 0.973489
vn -0.001089 0.251759 0.967789
vn -0.001093 0.251749 0.967792
vn -0.001477 0.411760 0.911291
vn -0.001473 0.411771 0.911286
vn -0.001453 0.401507 0.915855
vn -0.001449 0.401498 0.915859
vn -0.001812 0.559112 0.829090
vn -0.001812 0.559113 0.829090
vn -0.002023 0.653229 0.757157
vn -0.002020 0.653234 0.757154
vn -0.002112 0.694547 0.719445
vn -0.002112 0.694547 0.719444
vn -0.002345 0.809097 0.587671
vn -0.002344 0.809097 0.587670
vn -0.002459 0.872927 0.487845
vn -0.002463 0.872924 0.487850
vn -0.002538 0.917559 0.397592
vn -0.002532 0.917563 0.397583
vn -0.002576 0.948536 0.316659
vn -0.002580 0.948534 0.316666
vn -0.002593 0.966233 0.257656
vn -0.002594 0.966233 0.257658
vn 0.002594 -0.966232 0.257659
vn 0.002576 -0.948536 0.316660
vn 0.002579 -0.948534 0.316665
vn 0.002537 -0.917559 0.397592
vn 0.002532 -0.917562 0.397585
vn 0.002459 -0.872927 0.487844
vn 0.002463 -0.872924 0.487849
vn 0.002346 -0.809096 0.587671
vn 0.002342 -0.809099 0.587667
vn 0.002109 -0.694547 0.719444
vn 0.002112 -0.694544 0.719448
vn 0.002023 -0.653234 0.757154
vn 0.002020 -0.653238 0.757150
vn 0.001812 -0.559103 0.829096
vn 0.001449 -0.401513 0.915852
vn 0.001453 -0.401505 0.915856
vn 0.001477 -0.411769 0.911287
vn 0.001093 -0.251750 0.967792
vn 0.001037 -0.228724 0.973491
vn 0.001033 -0.228732 0.973489
vn 0.000753 -0.115876 0.993263
vn 0.000753 -0.115875 0.993263
vn 0.000459 0.000046 1.000000
vn 0.000000 1.000000 -0.000000
vn -0.000456 -0.001810 -0.999998
vn 0.000000 -0.001780 -0.999998
vn 0.002561 -0.999997 -0.000161
vn 0.002602 -0.984740 0.174013
usemtl Material
s off
f 18//1 1//1 2//1
f 18//1 2//1 3//1
f 18//1 3//1 4//1
f 18//1 4//1 5//1
f 18//1 5//1 6//1
f 18//1 6//1 7//1
f 18//1 7//1 8//1
f 18//1 8//1 9//1
f 18//1 9//1 10//1
f 18//1 10//1 11//1
f 18//1 11//1 12//1
f 18//1 12//1 13//1
f 18//1 13//1 14//1
f 18//1 14//1 15//1
f 18//1 15//1 53//1
f 18//1 53//1 16//1
f 18//1 16//1 17//1
f 17//1 1//1 18//1
f 36//2 37//2 19//2
f 35//2 36//2 19//2
f 34//2 35//2 19//2
f 33//2 34//2 19//2
f 32//2 33//2 19//2
f 31//2 32//2 19//2
f 30//2 31//2 19//2
f 29//2 30//2 19//2
f 28//3 29//3 19//3
f 27//4 28//4 19//4
f 26//2 27//2 19//2
f 25//2 26//2 19//2
f 24//2 25//2 19//2
f 23//2 24//2 19//2
f 22//2 23//2 19//2
f 21//2 22//2 19//2
f 20//2 21//2 19//2
f 19//2 37//2 20//2
f 55//1 38//1 54//1
f 54//5 16//5 55//5
f 16//6 53//6 55//6
f 53//6 52//6 55//6
f 52//1 51//1 55//1
f 51//1 50//1 55//1
f 50//1 49//1 55//1
f 49//1 48//1 55//1
f 48//7 47//7 55//7
f 47//8 46//8 55//8
f 46//1 45//1 55//1
f 45//1 44//1 55//1
f 44//1 43//1 55//1
f 43//1 42//1 55//1
f 42//1 41//1 55//1
f 41//1 40//1 55//1
f 40//1 39//1 55//1
f 39//1 38//1 55//1
f 57//2 72//2 56//2
f 56//9 21//9 57//9
f 56//10 22//10 21//10
f 56//10 58//10 22//10
f 56//2 59//2 58//2
f 56//2 60//2 59//2
f 56//2 61//2 60//2
f 56//2 62//2 61//2
f 56//11 63//11 62//11
f 56//12 64//12 63//12
f 56//2 65//2 64//2
f 56//2 66//2 65//2
f 56//2 67//2 66//2
f 56//2 68//2 67//2
f 56//2 69//2 68//2
f 56//2 70//2 69//2
f 56//2 71//2 70//2
f 56//2 72//2 71//2
f 71//13 72//13 38//13
f 71//13 38//13 39//13
f 72//14 57//14 38//14
f 57//14 54//14 38//14
f 57//15 21//15 54//15
f 21//16 16//16 54//16
f 22//17 58//17 52//17
f 22//18 52//18 53//18
f 58//19 59//19 51//19
f 58//20 51//20 52//20
f 59//21 60//21 50//21
f 59//22 50//22 51//22
f 60//23 61//23 49//23
f 60//24 49//24 50//24
f 61//25 62//25 48//25
f 61//26 48//26 49//26
f 62//27 63//27 48//27
f 63//28 47//28 48//28
f 63//29 64//29 46//29
f 63//30 46//30 47//30
f 64//31 65//31 45//31
f 64//32 45//32 46//32
f 65//33 66//33 44//33
f 65//34 44//34 45//34
f 66//35 67//35 43//35
f 66//36 43//36 44//36
f 67//37 68//37 42//37
f 67//38 42//38 43//38
f 68//39 69//39 41//39
f 68//40 41//40 42//40
f 69//41 70//41 40//41
f 69//42 40//42 41//42
f 70//43 71//43 39//43
f 70//44 39//44 40//44
f 3//45 2//45 36//45
f 3//45 36//45 35//45
f 4//46 3//46 35//46
f 4//47 35//47 34//47
f 5//48 4//48 34//48
f 5//49 34//49 33//49
f 6//50 5//50 33//50
f 6//51 33//51 32//51
f 7//52 6//52 32//52
f 7//53 32//53 31//53
f 8//54 7//54 31//54
f 8//55 31//55 30//55
f 9//56 8//56 30//56
f 9//57 30//57 29//57
f 10//58 9//58 29//58
f 10//58 29//58 28//58
f 11//59 10//59 28//59
f 11//60 28//60 27//60
f 12//61 11//61 27//61
f 12//61 27//61 26//61
f 13//62 12//62 26//62
f 13//62 26//62 25//62
f 14//63 13//63 25//63
f 14//64 25//64 24//64
f 15//65 14//65 24//65
f 15//66 24//66 23//66
f 53//67 15//67 23//67
f 53//18 23//18 22//18
f 16//68 53//68 22//68
f 16//68 22//68 21//68
f 17//69 16//69 20//69
f 16//70 21//70 20//70
f 1//71 17//71 37//71
f 17//71 20//71 37//71
f 2//72 1//72 37//72
f 2//72 37//72 36//72
