# Blender OBJ File: /home/flash/doc/book/codigos/lapis.blend
# www.blender.org
mtllib lapis.mtl
o Cylinder_Cylinder
v 0.350405931473 0.846153020859 -5.06060123444
v 0.495548784733 0.495747119188 -5.06060123444
v 0.350405931473 0.14534124732 -5.06060123444
v -3.95542620879e-08 0.000198513269424 -5.06060123444
v -0.350405871868 0.145341306925 -5.06060123444
v -0.495548784733 0.495747148991 -5.06060123444
v -0.350405871868 0.846153020859 -5.06060123444
v -1.45856006384e-07 0.991296052933 -5.06060123444
v 0.350405871868 0.846152424812 6.85282039642
v 0.495548784733 0.495746582747 6.85282039642
v 0.35040602088 0.145340412855 6.85282039642
v -8.04936561849e-09 0.000197619199753 6.85282039642
v -0.35040602088 0.145340591669 6.85282039642
v -0.495548784733 0.495746612549 6.85282039642
v -0.35040551424 0.846152663231 6.85282039642
v 6.49697199151e-07 0.991295218468 6.85282039642
v 3.81044529263e-09 0.495746284723 6.85282039642
v -6.73046542943e-08 0.663837194443 -6.55757522583
v -0.118857555091 0.614604711533 -6.55757522583
v -0.16809001565 0.495747178793 -6.55757522583
v -0.118857555091 0.376889646053 -6.55757522583
v -3.12471648556e-08 0.327657222748 -6.55757522583
v 0.118857555091 0.376889616251 -6.55757522583
v 0.168089941144 0.495747178793 -6.55757522583
v 0.118857555091 0.614604711533 -6.55757522583
v 8.32194491522e-05 0.495830416679 -6.8528213501
v 0.000117699994007 0.495747178793 -6.8528213501
v 8.32194491522e-05 0.495663940907 -6.8528213501
v -2.39650255196e-08 0.49562945962 -6.8528213501
v -8.32673031255e-05 0.495663940907 -6.8528213501
v -0.00011774795712 0.495747178793 -6.8528213501
v -8.32673031255e-05 0.495830416679 -6.8528213501
v -2.39902497867e-08 0.495864897966 -6.8528213501
v -2.39547226499e-08 0.495747178793 -6.8528213501
vt 0.0 0.0 0.0
vt 0.0 0.0 0.0
vt 0.0 0.0 0.0
vt 0.0 0.0 0.0
vt 0.0 0.0 0.0
vt 0.0 0.0 0.0
vt 0.0 0.0 0.0
vt 0.0 0.0 0.0
vt 0.0 0.0 0.0
vt 0.0 0.0 0.0
vt 0.0 0.0 0.0
vt 0.0 0.0 0.0
vt 0.0 0.0 0.0
vt 0.0 0.0 0.0
vt 0.0 0.0 0.0
vt 0.0 0.0 0.0
vt 0.0 0.0 0.0
vt 0.0 0.0 0.0
vt 0.0 0.0 0.0
vt 0.0 0.0 0.0
vt 0.0 0.0 0.0
vt 0.0 0.0 0.0
vt 0.0 0.0 0.0
vt 0.0 0.0 0.0
vt 0.0 0.0 0.0
vt 0.0 0.0 0.0
vt 0.0 0.0 0.0
vt 0.0 0.0 0.0
vt 0.0 0.0 0.0
vt 0.0 0.0 0.0
vt 0.0 0.0 0.0
vt 0.0 0.0 0.0
vt 0.0 0.0 0.0
vt 0.0 0.0 0.0
vt 0.0 0.0 0.0
vt 0.0 0.0 0.0
vt 0.0 0.0 0.0
vt 0.0 0.0 0.0
vt 0.0 0.0 0.0
vt 0.0 0.0 0.0
vt 0.0 0.0 0.0
vt 0.0 0.0 0.0
vt 0.0 0.0 0.0
vt 0.0 0.0 0.0
vt 0.0 0.0 0.0
vt 0.0 0.0 0.0
vt 0.0 0.0 0.0
vt 0.0 0.0 0.0
vt 0.0 0.0 0.0
vt 0.0 0.0 0.0
vt 0.0 0.0 0.0
vt 0.0 0.0 0.0
vt 0.0 0.0 0.0
vt 0.0 0.0 0.0
vt 0.0 0.0 0.0
vt 0.0 0.0 0.0
vt 0.0 0.0 0.0
vt 0.0 0.0 0.0
vt 0.0 0.0 0.0
vt 0.0 0.0 0.0
vt 0.0 0.0 0.0
vt 0.0 0.0 0.0
vt 0.0 0.0 0.0
vt 0.0 0.0 0.0
vt 0.0 0.0 0.0
vt 0.0 0.0 0.0
vt 0.0 0.0 0.0
vt 0.0 0.0 0.0
vt 0.0 0.0 0.0
vt 0.0 0.0 0.0
vt 0.0 0.0 0.0
vt 0.0 0.0 0.0
vt 0.0 0.0 0.0
vt 0.0 0.0 0.0
vt 0.0 0.0 0.0
vt 0.0 0.0 0.0
vt 0.0 0.0 0.0
vt 0.0 0.0 0.0
vt 0.0 0.0 0.0
vt 0.0 0.0 0.0
vt 0.0 0.0 0.0
vt 0.0 0.0 0.0
vt 0.0 0.0 0.0
vt 0.0 0.0 0.0
vt 0.0 0.0 0.0
vt 0.0 0.0 0.0
vt 0.0 0.0 0.0
vt 0.0 0.0 0.0
vt 0.0 0.0 0.0
vt 0.0 0.0 0.0
vt 0.0 0.0 0.0
vt 0.0 0.0 0.0
vt 0.0 0.0 0.0
vt 0.0 0.0 0.0
vt 0.0 0.0 0.0
vt 0.0 0.0 0.0
vt 0.0 0.0 0.0
vt 0.0 0.0 0.0
vt 0.0 0.0 0.0
vt 0.0 0.0 0.0
vt 0.0 0.0 0.0
vt 0.0 0.0 0.0
vt 0.0 0.0 0.0
vt 0.0 0.0 0.0
vt 0.0 0.0 0.0
vt 0.0 0.0 0.0
vt 0.0 0.0 0.0
vt 0.0 0.0 0.0
vt 0.0 0.0 0.0
vt 0.0 0.0 0.0
vt 0.0 0.0 0.0
vt 0.0 0.0 0.0
vt 0.0 0.0 0.0
vt 0.0 0.0 0.0
vt 0.0 0.0 0.0
vt 0.0 0.0 0.0
vt 0.0 0.0 0.0
vt 0.0 0.0 0.0
vt 0.0 0.0 0.0
vt 0.0 0.0 0.0
vt 0.0 0.0 0.0
vt 0.0 0.0 0.0
vt 0.0 0.0 0.0
vt 0.0 0.0 0.0
vt 0.0 0.0 0.0
vt 0.0 0.0 0.0
vt 0.0 0.0 0.0
vt 0.0 0.0 0.0
vt 0.0 0.0 0.0
vt 0.0 0.0 0.0
vt 0.0 0.0 0.0
vt 0.0 0.0 0.0
vt 0.0 0.0 0.0
vt 0.0 0.0 0.0
vt 0.0 0.0 0.0
vt 0.0 0.0 0.0
vt 0.0 0.0 0.0
vt 0.0 0.0 0.0
vt 0.0 0.0 0.0
vt 0.0 0.0 0.0
vt 0.0 0.0 0.0
vt 0.0 0.0 0.0
vt 0.0 0.0 0.0
vt 0.0 0.0 0.0
vn 0.0 0.0 1.0
vn 0.0 0.0 1.0
vn 0.0 0.0 1.0
vn 0.0 0.0 1.0
vn 0.0 0.0 1.0
vn 0.0 0.0 1.0
vn 0.0 0.0 1.0
vn 0.0 0.0 1.0
vn 0.0 0.0 1.0
vn 0.0 0.0 1.0
vn 0.0 0.0 1.0
vn 0.0 0.0 1.0
vn 0.0 0.0 1.0
vn 0.0 0.0 1.0
vn 0.0 0.0 1.0
vn 0.0 0.0 1.0
vn 0.0 0.0 1.0
vn 0.0 0.0 1.0
vn 0.0 0.0 1.0
vn 0.0 0.0 1.0
vn 0.0 0.0 1.0
vn 0.0 0.0 1.0
vn 0.0 0.0 1.0
vn 0.0 0.0 1.0
vn 0.923879504204 0.382683455944 2.09247588145e-08
vn 0.923879504204 0.382683455944 2.09247588145e-08
vn 0.923879504204 0.382683455944 2.09247588145e-08
vn 0.923879504204 0.382683455944 2.09247588145e-08
vn 0.923879683018 -0.382683128119 -2.45146623001e-08
vn 0.923879683018 -0.382683128119 -2.45146623001e-08
vn 0.923879683018 -0.382683128119 -2.45146623001e-08
vn 0.923879683018 -0.382683128119 -2.45146623001e-08
vn 0.382683128119 -0.923879683018 -6.81483385279e-08
vn 0.382683128119 -0.923879683018 -6.81483385279e-08
vn 0.382683128119 -0.923879683018 -6.81483385279e-08
vn 0.382683128119 -0.923879683018 -6.81483385279e-08
vn -0.382683485746 -0.923879504204 -6.5444019981e-08
vn -0.382683485746 -0.923879504204 -6.5444019981e-08
vn -0.382683485746 -0.923879504204 -6.5444019981e-08
vn -0.382683485746 -0.923879504204 -6.5444019981e-08
vn -0.923879623413 -0.382683306932 -2.6206972592e-08
vn -0.923879623413 -0.382683306932 -2.6206972592e-08
vn -0.923879623413 -0.382683306932 -2.6206972592e-08
vn -0.923879623413 -0.382683306932 -2.6206972592e-08
vn -0.92387932539 0.382683873177 2.88906285562e-08
vn -0.92387932539 0.382683873177 2.88906285562e-08
vn -0.92387932539 0.382683873177 2.88906285562e-08
vn -0.92387932539 0.382683873177 2.88906285562e-08
vn -0.38268327713 0.923879623413 6.49836735533e-08
vn -0.38268327713 0.923879623413 6.49836735533e-08
vn -0.38268327713 0.923879623413 6.49836735533e-08
vn -0.38268327713 0.923879623413 6.49836735533e-08
vn 0.38268378377 0.923879444599 4.33091358332e-08
vn 0.38268378377 0.923879444599 4.33091358332e-08
vn 0.38268378377 0.923879444599 4.33091358332e-08
vn 0.38268378377 0.923879444599 4.33091358332e-08
vn 0.375100135803 0.905571460724 -0.19809114933
vn 0.375100135803 0.905571460724 -0.19809114933
vn 0.375100135803 0.905571460724 -0.19809114933
vn 0.375100135803 0.905571460724 -0.19809114933
vn -0.375100553036 0.905571341515 -0.198091179132
vn -0.375100553036 0.905571341515 -0.198091179132
vn -0.375100553036 0.905571341515 -0.198091179132
vn -0.375100553036 0.905571341515 -0.198091179132
vn -0.905571579933 0.375100195408 -0.19809114933
vn -0.905571579933 0.375100195408 -0.19809114933
vn -0.905571579933 0.375100195408 -0.19809114933
vn -0.905571579933 0.375100195408 -0.19809114933
vn -0.905571460724 -0.375100195408 -0.19809114933
vn -0.905571460724 -0.375100195408 -0.19809114933
vn -0.905571460724 -0.375100195408 -0.19809114933
vn -0.905571460724 -0.375100195408 -0.19809114933
vn -0.375099986792 -0.905571579933 -0.198091134429
vn -0.375099986792 -0.905571579933 -0.198091134429
vn -0.375099986792 -0.905571579933 -0.198091134429
vn -0.375099986792 -0.905571579933 -0.198091134429
vn 0.375099718571 -0.905571758747 -0.198091164231
vn 0.375099718571 -0.905571758747 -0.198091164231
vn 0.375099718571 -0.905571758747 -0.198091164231
vn 0.375099718571 -0.905571758747 -0.198091164231
vn 0.905571639538 -0.375099927187 -0.198091208935
vn 0.905571639538 -0.375099927187 -0.198091208935
vn 0.905571639538 -0.375099927187 -0.198091208935
vn 0.905571639538 -0.375099927187 -0.198091208935
vn 0.905571639538 0.375099927187 -0.198091194034
vn 0.905571639538 0.375099927187 -0.198091194034
vn 0.905571639538 0.375099927187 -0.198091194034
vn 0.905571639538 0.375099927187 -0.198091194034
vn 0.817793250084 0.338740855455 -0.465261995792
vn 0.817793250084 0.338740855455 -0.465261995792
vn 0.817793250084 0.338740855455 -0.465261995792
vn 0.817793250084 0.338740855455 -0.465261995792
vn 0.817793250084 -0.338740885258 -0.465262025595
vn 0.817793250084 -0.338740885258 -0.465262025595
vn 0.817793250084 -0.338740885258 -0.465262025595
vn 0.817793250084 -0.338740885258 -0.465262025595
vn 0.338740855455 -0.817793369293 -0.465261995792
vn 0.338740855455 -0.817793369293 -0.465261995792
vn 0.338740855455 -0.817793369293 -0.465261995792
vn 0.338740855455 -0.817793369293 -0.465261995792
vn -0.338741153479 -0.817793250084 -0.46526196599
vn -0.338741153479 -0.817793250084 -0.46526196599
vn -0.338741153479 -0.817793250084 -0.46526196599
vn -0.338741153479 -0.817793250084 -0.46526196599
vn -0.81779307127 -0.338741391897 -0.465261995792
vn -0.81779307127 -0.338741391897 -0.465261995792
vn -0.81779307127 -0.338741391897 -0.465261995792
vn -0.81779307127 -0.338741391897 -0.465261995792
vn -0.817793190479 0.338741391897 -0.46526196599
vn -0.817793190479 0.338741391897 -0.46526196599
vn -0.817793190479 0.338741391897 -0.46526196599
vn -0.817793190479 0.338741391897 -0.46526196599
vn -0.338741451502 0.81779307127 -0.465261995792
vn -0.338741451502 0.81779307127 -0.465261995792
vn -0.338741451502 0.81779307127 -0.465261995792
vn -0.338741451502 0.81779307127 -0.465261995792
vn 0.338741153479 0.817793190479 -0.465261995792
vn 0.338741153479 0.817793190479 -0.465261995792
vn 0.338741153479 0.817793190479 -0.465261995792
vn 0.338741153479 0.817793190479 -0.465261995792
vn 0.0 0.0 -1.0
vn 0.0 0.0 -1.0
vn 0.0 0.0 -1.0
vn 0.0 0.0 -1.0
vn 0.0 0.0 -1.0
vn 0.0 0.0 -1.0
vn 0.0 0.0 -1.0
vn 0.0 0.0 -1.0
vn 0.0 0.0 -1.0
vn 0.0 0.0 -1.0
vn 0.0 0.0 -1.0
vn 0.0 0.0 -1.0
vn 0.0 0.0 -1.0
vn 0.0 0.0 -1.0
vn 0.0 0.0 -1.0
vn 0.0 0.0 -1.0
vn 0.0 0.0 -1.0
vn 0.0 0.0 -1.0
vn 0.0 0.0 -1.0
vn 0.0 0.0 -1.0
vn 0.0 0.0 -1.0
vn 0.0 0.0 -1.0
vn 0.0 0.0 -1.0
vn 0.0 0.0 -1.0
usemtl LapisCorpo
f 17/1/1 10/2/2 9/3/3 
f 17/4/4 11/5/5 10/6/6 
f 17/7/7 12/8/8 11/9/9 
f 17/10/10 13/11/11 12/12/12 
f 17/13/13 14/14/14 13/15/15 
f 17/16/16 15/17/17 14/18/18 
f 17/19/19 16/20/20 15/21/21 
f 17/22/22 9/23/23 16/24/24 
f 1/25/25 9/26/26 10/27/27 2/28/28 
f 2/29/29 10/30/30 11/31/31 3/32/32 
f 3/33/33 11/34/34 12/35/35 4/36/36 
f 4/37/37 12/38/38 13/39/39 5/40/40 
f 5/41/41 13/42/42 14/43/43 6/44/44 
f 6/45/45 14/46/46 15/47/47 7/48/48 
f 7/49/49 15/50/50 16/51/51 8/52/52 
f 9/53/53 1/54/54 8/55/55 16/56/56 
usemtl LapisMadeira
f 8/57/57 1/58/58 25/59/59 18/60/60 
f 7/61/61 8/62/62 18/63/63 19/64/64 
f 6/65/65 7/66/66 19/67/67 20/68/68 
f 5/69/69 6/70/70 20/71/71 21/72/72 
f 4/73/73 5/74/74 21/75/75 22/76/76 
f 3/77/77 4/78/78 22/79/79 23/80/80 
f 2/81/81 3/82/82 23/83/83 24/84/84 
f 1/85/85 2/86/86 24/87/87 25/88/88 
usemtl LapisGrafite
f 25/89/89 24/90/90 27/91/91 26/92/92 
f 24/93/93 23/94/94 28/95/95 27/96/96 
f 23/97/97 22/98/98 29/99/99 28/100/100 
f 22/101/101 21/102/102 30/103/103 29/104/104 
f 21/105/105 20/106/106 31/107/107 30/108/108 
f 20/109/109 19/110/110 32/111/111 31/112/112 
f 19/113/113 18/114/114 33/115/115 32/116/116 
f 18/117/117 25/118/118 26/119/119 33/120/120 
f 34/121/121 26/122/122 27/123/123 
f 34/124/124 27/125/125 28/126/126 
f 34/127/127 28/128/128 29/129/129 
f 34/130/130 29/131/131 30/132/132 
f 34/133/133 30/134/134 31/135/135 
f 34/136/136 31/137/137 32/138/138 
f 34/139/139 32/140/140 33/141/141 
f 33/142/142 26/143/143 34/144/144 
