# Blender OBJ File: /home/flash/doc/book/codigos/livro.blend
# www.blender.org
mtllib livro.mtl
o Cube_Cube
v 8.50211238861 3.10215187073 12.0016403198
v 8.50211238861 3.10215044022 -12.0016384125
v -8.50211524963 3.10215044022 -12.0016365051
v -8.50210952759 3.10215187073 12.0016441345
v 8.50211715698 2.95394420624 12.0016365051
v 8.50210666656 2.95394301414 -12.0016441345
v -8.50211715698 2.95394301414 -12.0016345978
v -8.50211238861 2.95394420624 12.0016403198
v -8.50211238861 0.00371887930669 12.0016403198
v -8.50211715698 0.00371768721379 -12.0016345978
v 8.50210666656 0.00371768721379 -12.0016441345
v 8.50211715698 0.00371887930669 12.0016365051
v -8.50210952759 0.151926279068 12.0016441345
v -8.50211524963 0.151925086975 -12.0016365051
v 8.50211238861 0.151925086975 -12.0016384125
v 8.50211238861 0.151926279068 12.0016403198
v -8.20044708252 0.151926279068 11.841840744
v -8.20044708252 0.151925086975 -11.8418388367
v -8.20045375824 2.95394301414 -11.8418445587
v -8.20044326782 2.95394420624 11.8418359756
v 8.39471340179 2.95394468307 -11.8418483734
v 8.39472389221 2.95394635201 11.8418321609
v 8.39471912384 0.151928514242 11.8418369293
v 8.39471912384 0.151927173138 -11.8418416977
vt 0.0 1.0 0.0
vt 0.0 0.0 0.0
vt 1.0 0.0 0.0
vt 1.0 1.0 0.0
vt 0.0 1.0 0.0
vt 0.0 0.0 0.0
vt 1.0 0.0 0.0
vt 1.0 1.0 0.0
vt 0.0 1.0 0.0
vt 0.0 0.0 0.0
vt 1.0 0.0 0.0
vt 1.0 1.0 0.0
vt 0.0 1.0 0.0
vt 0.0 0.0 0.0
vt 1.0 0.0 0.0
vt 1.0 1.0 0.0
vt 0.0 1.0 0.0
vt 0.0 0.0 0.0
vt 1.0 0.0 0.0
vt 1.0 1.0 0.0
vt 0.0 1.0 0.0
vt 0.0 0.0 0.0
vt 1.0 0.0 0.0
vt 1.0 1.0 0.0
vt 0.0 1.0 0.0
vt 0.0 0.0 0.0
vt 1.0 0.0 0.0
vt 1.0 1.0 0.0
vt 0.0 1.0 0.0
vt 0.0 0.0 0.0
vt 1.0 0.0 0.0
vt 1.0 1.0 0.0
vt 0.0 1.0 0.0
vt 0.0 0.0 0.0
vt 1.0 0.0 0.0
vt 1.0 1.0 0.0
vt 0.0 1.0 0.0
vt 0.0 0.0 0.0
vt 1.0 0.0 0.0
vt 1.0 1.0 0.0
vt -0.001953125 0.0 0.0
vt 1.0 -0.001953125 0.0
vt 1.0 1.0 0.0
vt 0.0 1.0 0.0
vt 0.0 1.0 0.0
vt 0.0 0.0 0.0
vt 1.0 0.0 0.0
vt 1.0 1.0 0.0
vt 1.0 0.999999821186 0.0
vt 1.16996102406e-06 1.0 0.0
vt 0.0 2.78116942809e-07 0.0
vt 0.999998867512 0.0 0.0
vt 0.0 1.0 0.0
vt 1.0 1.0 0.0
vt 1.0 0.0 0.0
vt 0.0 0.0 0.0
vt 0.0 1.0 0.0
vt 0.0 0.0 0.0
vt 1.0 0.0 0.0
vt 1.0 1.0 0.0
vt 0.0 1.0 0.0
vt 0.0 0.0 0.0
vt 1.0 0.0 0.0
vt 1.0 1.0 0.0
vt 0.0 1.0 0.0
vt 1.0 1.0 0.0
vt 1.0 0.0 0.0
vt 0.0 0.0 0.0
vt 0.0 1.0 0.0
vt 1.0 1.0 0.0
vt 1.0 0.0 0.0
vt 0.0 0.0 0.0
vt 0.0 1.0 0.0
vt 0.0 0.0 0.0
vt 1.0 0.0 0.0
vt 1.0 1.0 0.0
vn -8.70427912554e-15 1.0 -4.96637539982e-08
vn -8.70427912554e-15 1.0 -4.96637539982e-08
vn -8.70427912554e-15 1.0 -4.96637539982e-08
vn -8.70427912554e-15 1.0 -4.96637539982e-08
vn 2.0890266852e-14 -1.0 4.96637539982e-08
vn 2.0890266852e-14 -1.0 4.96637539982e-08
vn 2.0890266852e-14 -1.0 4.96637539982e-08
vn 2.0890266852e-14 -1.0 4.96637539982e-08
vn 1.0 -4.02169325753e-06 -2.23486679829e-07
vn 1.0 -4.02169325753e-06 -2.23486679829e-07
vn 1.0 -4.02169325753e-06 -2.23486679829e-07
vn 1.0 -4.02169325753e-06 -2.23486679829e-07
vn -3.50528409854e-07 1.60868130479e-05 -1.0
vn -3.50528409854e-07 1.60868130479e-05 -1.0
vn -3.50528409854e-07 1.60868130479e-05 -1.0
vn -3.50528409854e-07 1.60868130479e-05 -1.0
vn -1.0 2.01085040317e-05 2.23485884021e-07
vn -1.0 2.01085040317e-05 2.23485884021e-07
vn -1.0 2.01085040317e-05 2.23485884021e-07
vn -1.0 2.01085040317e-05 2.23485884021e-07
vn 2.45369903951e-07 -2.81519078271e-05 1.0
vn 2.45369903951e-07 -2.81519078271e-05 1.0
vn 2.45369903951e-07 -2.81519078271e-05 1.0
vn 2.45369903951e-07 -2.81519078271e-05 1.0
vn 2.45369875529e-07 -2.8151935112e-05 1.0
vn 2.45369875529e-07 -2.8151935112e-05 1.0
vn 2.45369875529e-07 -2.8151935112e-05 1.0
vn 2.45369875529e-07 -2.8151935112e-05 1.0
vn -1.0 2.01085240406e-05 2.23485898232e-07
vn -1.0 2.01085240406e-05 2.23485898232e-07
vn -1.0 2.01085240406e-05 2.23485898232e-07
vn -1.0 2.01085240406e-05 2.23485898232e-07
vn -3.50528409854e-07 1.60868294188e-05 -1.0
vn -3.50528409854e-07 1.60868294188e-05 -1.0
vn -3.50528409854e-07 1.60868294188e-05 -1.0
vn -3.50528409854e-07 1.60868294188e-05 -1.0
vn 1.0 -4.02169689551e-06 -2.23486679829e-07
vn 1.0 -4.02169689551e-06 -2.23486679829e-07
vn 1.0 -4.02169689551e-06 -2.23486679829e-07
vn 1.0 -4.02169689551e-06 -2.23486679829e-07
vn 2.0890266852e-14 -1.0 4.96637539982e-08
vn 2.0890266852e-14 -1.0 4.96637539982e-08
vn 2.0890266852e-14 -1.0 4.96637539982e-08
vn 2.0890266852e-14 -1.0 4.96637539982e-08
vn -8.70427912554e-15 1.0 -4.96637539982e-08
vn -8.70427912554e-15 1.0 -4.96637539982e-08
vn -8.70427912554e-15 1.0 -4.96637539982e-08
vn -8.70427912554e-15 1.0 -4.96637539982e-08
vn 1.0 2.12719982073e-07 -2.23486907203e-07
vn 1.0 2.12719982073e-07 -2.23486907203e-07
vn 1.0 2.12719982073e-07 -2.23486907203e-07
vn 1.0 2.12719982073e-07 -2.23486907203e-07
vn -1.0 -2.12719982073e-07 2.26502749001e-07
vn -1.0 -2.12719982073e-07 2.26502749001e-07
vn -1.0 -2.12719982073e-07 2.26502749001e-07
vn -1.0 -2.12719982073e-07 2.26502749001e-07
vn 1.16729850674e-07 -1.0 5.66256304069e-08
vn 1.16729850674e-07 -1.0 5.66256304069e-08
vn 1.16729850674e-07 -1.0 5.66256304069e-08
vn 1.16729850674e-07 -1.0 5.66256304069e-08
vn -1.301986714e-07 1.0 -5.34798125784e-08
vn -1.301986714e-07 1.0 -5.34798125784e-08
vn -1.301986714e-07 1.0 -5.34798125784e-08
vn -1.301986714e-07 1.0 -5.34798125784e-08
vn 2.15500989498e-07 1.70176315351e-06 1.0
vn 2.15500989498e-07 1.70176315351e-06 1.0
vn 2.15500989498e-07 1.70176315351e-06 1.0
vn 2.15500989498e-07 1.70176315351e-06 1.0
vn -2.15500975287e-07 -2.1272048798e-06 -1.0
vn -2.15500975287e-07 -2.1272048798e-06 -1.0
vn -2.15500975287e-07 -2.1272048798e-06 -1.0
vn -2.15500975287e-07 -2.1272048798e-06 -1.0
vn -1.0 -2.12720010495e-07 2.26502749001e-07
vn -1.0 -2.12720010495e-07 2.26502749001e-07
vn -1.0 -2.12720010495e-07 2.26502749001e-07
vn -1.0 -2.12720010495e-07 2.26502749001e-07
usemtl CapaLivro
usemat texturas/capa-textura-final.jpg
f 1/1/1 2/2/2 3/3/3 4/4/4 
usemat (null)
f 5/5/5 8/6/6 7/7/7 6/8/8 
usemtl Lombada
f 1/9/9 5/10/10 6/11/11 2/12/12 
usemtl CapaLivro
f 2/13/13 6/14/14 7/15/15 3/16/16 
f 3/17/17 7/18/18 8/19/19 4/20/20 
f 5/21/21 1/22/22 4/23/23 8/24/24 
f 12/25/25 16/26/26 13/27/27 9/28/28 
f 14/29/29 10/30/30 9/31/31 13/32/32 
f 15/33/33 11/34/34 10/35/35 14/36/36 
usemtl Lombada
f 16/37/37 12/38/38 11/39/39 15/40/40 
usemtl ContraCapa
f 12/41/41 9/42/42 10/43/43 11/44/44 
usemtl CapaLivro
f 16/45/45 15/46/46 14/47/47 13/48/48 
usemat texturas/lombada-textura.jpg
f 5/49/49 16/50/50 15/51/51 6/52/52 
usemtl Paginas
usemat texturas/livro-paginas.jpg
f 20/53/53 19/54/54 18/55/55 17/56/56 
usemtl Lombada
usemat (null)
f 20/57/57 19/58/58 21/59/59 22/60/60 
f 18/61/61 17/62/62 23/63/63 24/64/64 
usemtl Paginas
usemat texturas/livro-paginas.jpg
f 17/65/65 23/66/66 22/67/67 20/68/68 
f 19/69/69 21/70/70 24/71/71 18/72/72 
usemtl Lombada
usemat (null)
f 21/73/73 24/74/74 23/75/75 22/76/76 
