# Blender OBJ File: /home/flash/doc/book/codigos/papel1.blend
# www.blender.org
mtllib papel1.mtl
o Plane_Plane
v -10.4977378845 1.12113627893e-06 14.8499011993
v -10.4977331161 -1.12113684736e-06 -14.8499097824
v 10.4977378845 -1.12113673367e-06 -14.849905014
v 10.4977264404 1.12113684736e-06 14.8499097824
vt 1.0 0.999999701977 0.0
vt 4.54228541003e-07 1.0 0.0
vt 0.0 1.6055220442e-07 0.0
vt 0.999999880791 0.0 0.0
vn 6.6553132024e-15 1.0 -7.54978941586e-08
vn 6.6553132024e-15 1.0 -7.54978941586e-08
vn 6.6553132024e-15 1.0 -7.54978941586e-08
vn 6.6553132024e-15 1.0 -7.54978941586e-08
usemtl Papel
usemat texturas/folha1.jpg
f 1/1/1 4/2/2 3/3/3 2/4/4 
