# Blender3D v245 OBJ File: LAMPADAa.blend
# www.blender3d.org
mtllib LAMPADAa.mtl
v 2.871809 0.740271 -0.439304
v 2.891461 0.716324 -0.439304
v 2.906064 0.689004 -0.439304
v 2.915056 0.659360 -0.439304
v 2.918092 0.628531 -0.439304
v 2.915056 0.597702 -0.439304
v 2.906064 0.568057 -0.439304
v 2.891461 0.540737 -0.439304
v 2.871809 0.516791 -0.439304
v 2.847862 0.497139 -0.439304
v 2.820542 0.482536 -0.439304
v 2.790897 0.473543 -0.439304
v 2.760068 0.470507 -0.439304
v 2.729239 0.473543 -0.439304
v 2.699595 0.482536 -0.439304
v 2.672275 0.497139 -0.439304
v 2.648329 0.516791 -0.439304
v 2.628676 0.540737 -0.439304
v 2.614074 0.568058 -0.439304
v 2.605081 0.597702 -0.439304
v 2.602044 0.628531 -0.439304
v 2.605081 0.659360 -0.439304
v 2.614074 0.689004 -0.439304
v 2.628676 0.716324 -0.439304
v 2.648329 0.740271 -0.439304
v 2.672275 0.759923 -0.439304
v 2.699595 0.774526 -0.439304
v 2.729240 0.783518 -0.439304
v 2.760069 0.786555 -0.439304
v 2.790898 0.783518 -0.439304
v 2.820542 0.774526 -0.439304
v 2.847862 0.759923 -0.439304
v 2.760068 0.628531 -0.439304
v 2.871809 0.740269 -11.095196
v 2.847862 0.759921 -11.095196
v 2.820542 0.774525 -11.095196
v 2.790898 0.783517 -11.095196
v 2.760069 0.786554 -11.095196
v 2.729240 0.783517 -11.095196
v 2.699595 0.774525 -11.095196
v 2.672275 0.759922 -11.095196
v 2.648329 0.740269 -11.095196
v 2.628676 0.716323 -11.095196
v 2.614074 0.689003 -11.095196
v 2.605081 0.659359 -11.095196
v 2.602044 0.628530 -11.095196
v 2.605081 0.597701 -11.095196
v 2.614074 0.568056 -11.095196
v 2.628676 0.540736 -11.095196
v 2.648329 0.516790 -11.095196
v 2.672275 0.497137 -11.095196
v 2.699595 0.482534 -11.095196
v 2.729239 0.473542 -11.095196
v 2.760068 0.470505 -11.095196
v 2.790897 0.473542 -11.095196
v 2.820542 0.482534 -11.095196
v 2.847862 0.497137 -11.095196
v 2.871809 0.516790 -11.095196
v 2.891461 0.540736 -11.095196
v 2.906064 0.568056 -11.095196
v 2.915056 0.597700 -11.095196
v 2.918092 0.628529 -11.095196
v 2.915056 0.659358 -11.095196
v 2.906064 0.689003 -11.095196
v 2.891461 0.716323 -11.095196
v 2.760068 0.628529 -11.095196
v 3.326619 0.628529 -11.095196
v 3.458011 0.716323 -11.095196
v 3.472614 0.689003 -11.095196
v 3.481606 0.659358 -11.095196
v 3.484643 0.628529 -11.095196
v 3.481606 0.597700 -11.095196
v 3.472614 0.568056 -11.095196
v 3.458011 0.540736 -11.095196
v 3.438359 0.516790 -11.095196
v 3.414412 0.497137 -11.095196
v 3.387092 0.482534 -11.095196
v 3.357448 0.473542 -11.095196
v 3.326619 0.470505 -11.095196
v 3.295790 0.473542 -11.095196
v 3.266145 0.482534 -11.095196
v 3.238825 0.497137 -11.095196
v 3.214879 0.516790 -11.095196
v 3.195226 0.540736 -11.095196
v 3.180624 0.568056 -11.095196
v 3.171631 0.597701 -11.095196
v 3.168595 0.628530 -11.095196
v 3.171631 0.659359 -11.095196
v 3.180624 0.689003 -11.095196
v 3.195227 0.716323 -11.095196
v 3.214879 0.740269 -11.095196
v 3.238826 0.759922 -11.095196
v 3.266146 0.774525 -11.095196
v 3.295790 0.783517 -11.095196
v 3.326619 0.786554 -11.095196
v 3.357448 0.783517 -11.095196
v 3.387092 0.774525 -11.095196
v 3.414412 0.759921 -11.095196
v 3.438359 0.740269 -11.095196
v 3.326619 0.628531 -0.439304
v 3.414412 0.759923 -0.439304
v 3.387092 0.774526 -0.439304
v 3.357448 0.783518 -0.439304
v 3.326619 0.786555 -0.439304
v 3.295790 0.783518 -0.439304
v 3.266146 0.774526 -0.439304
v 3.238826 0.759923 -0.439304
v 3.214879 0.740271 -0.439304
v 3.195227 0.716324 -0.439304
v 3.180624 0.689004 -0.439304
v 3.171631 0.659360 -0.439304
v 3.168595 0.628531 -0.439304
v 3.171631 0.597702 -0.439304
v 3.180624 0.568058 -0.439304
v 3.195226 0.540737 -0.439304
v 3.214879 0.516791 -0.439304
v 3.238825 0.497139 -0.439304
v 3.266145 0.482536 -0.439304
v 3.295790 0.473543 -0.439304
v 3.326619 0.470507 -0.439304
v 3.357448 0.473543 -0.439304
v 3.387092 0.482536 -0.439304
v 3.414412 0.497139 -0.439304
v 3.438359 0.516791 -0.439304
v 3.458011 0.540737 -0.439304
v 3.472614 0.568057 -0.439304
v 3.481606 0.597702 -0.439304
v 3.484643 0.628531 -0.439304
v 3.481606 0.659360 -0.439304
v 3.472614 0.689004 -0.439304
v 3.458011 0.716324 -0.439304
v 3.438359 0.740271 -0.439304
vn 0.000000 0.000000 -1.000000
vn 0.000000 -0.000001 -1.000000
vn 0.000000 0.000000 1.000000
vn -0.634388 -0.773015 0.000000
vn -0.471401 -0.881919 0.000000
vn -0.290287 -0.956940 0.000000
vn -0.098019 -0.995185 0.000000
vn 0.098013 -0.995185 0.000000
vn 0.290285 -0.956940 0.000000
vn 0.471399 -0.881920 0.000000
vn 0.634391 -0.773012 0.000000
vn 0.773009 -0.634394 0.000000
vn 0.881922 -0.471395 0.000000
vn 0.956939 -0.290290 0.000000
vn 0.995184 -0.098021 0.000000
vn 0.995184 0.098021 -0.000000
vn 0.956939 0.290290 -0.000000
vn 0.881926 0.471389 -0.000000
vn 0.773010 0.634394 -0.000000
vn 0.634393 0.773011 -0.000000
vn 0.634394 0.773010 -0.000000
vn 0.471399 0.881920 -0.000000
vn 0.290284 0.956941 -0.000000
vn 0.098018 0.995185 -0.000000
vn -0.098018 0.995185 -0.000000
vn -0.290282 0.956941 -0.000000
vn -0.471399 0.881920 -0.000000
vn -0.634391 0.773012 -0.000000
vn -0.634392 0.773012 -0.000000
vn -0.773013 0.634390 -0.000000
vn -0.881922 0.471395 -0.000000
vn -0.956939 0.290290 -0.000000
vn -0.995185 0.098013 -0.000000
vn -0.995185 -0.098013 0.000000
vn -0.956939 -0.290290 0.000000
vn -0.881922 -0.471395 0.000000
vn -0.773013 -0.634390 0.000000
usemtl Material
s off
f 33//1 1//1 2//1
f 33//1 2//1 3//1
f 33//1 3//1 4//1
f 33//1 4//1 5//1
f 33//2 5//2 6//2
f 33//1 6//1 7//1
f 33//1 7//1 8//1
f 33//1 8//1 9//1
f 33//1 9//1 10//1
f 33//1 10//1 11//1
f 33//1 11//1 12//1
f 33//1 12//1 13//1
f 33//1 13//1 14//1
f 33//1 14//1 15//1
f 33//1 15//1 16//1
f 33//1 16//1 17//1
f 33//1 17//1 18//1
f 33//1 18//1 19//1
f 33//1 19//1 20//1
f 33//2 20//2 21//2
f 33//1 21//1 22//1
f 33//1 22//1 23//1
f 33//1 23//1 24//1
f 33//1 24//1 25//1
f 33//1 25//1 26//1
f 33//1 26//1 27//1
f 33//1 27//1 28//1
f 33//1 28//1 29//1
f 33//1 29//1 30//1
f 33//1 30//1 31//1
f 33//1 31//1 32//1
f 32//1 1//1 33//1
f 34//3 35//3 66//3
f 35//3 36//3 66//3
f 36//3 37//3 66//3
f 37//3 38//3 66//3
f 38//3 39//3 66//3
f 39//3 40//3 66//3
f 40//3 41//3 66//3
f 41//3 42//3 66//3
f 42//3 43//3 66//3
f 43//3 44//3 66//3
f 44//3 45//3 66//3
f 45//3 46//3 66//3
f 46//3 47//3 66//3
f 47//3 48//3 66//3
f 48//3 49//3 66//3
f 49//3 50//3 66//3
f 50//3 51//3 66//3
f 51//3 52//3 66//3
f 52//3 53//3 66//3
f 53//3 54//3 66//3
f 54//3 55//3 66//3
f 55//3 56//3 66//3
f 56//3 57//3 66//3
f 57//3 58//3 66//3
f 58//3 59//3 66//3
f 59//3 60//3 66//3
f 60//3 61//3 66//3
f 61//3 62//3 66//3
f 62//3 63//3 66//3
f 63//3 64//3 66//3
f 64//3 65//3 66//3
f 65//3 34//3 66//3
f 68//3 99//3 67//3
f 69//3 68//3 67//3
f 70//3 69//3 67//3
f 71//3 70//3 67//3
f 72//3 71//3 67//3
f 73//3 72//3 67//3
f 74//3 73//3 67//3
f 75//3 74//3 67//3
f 76//3 75//3 67//3
f 77//3 76//3 67//3
f 78//3 77//3 67//3
f 79//3 78//3 67//3
f 80//3 79//3 67//3
f 81//3 80//3 67//3
f 82//3 81//3 67//3
f 83//3 82//3 67//3
f 84//3 83//3 67//3
f 85//3 84//3 67//3
f 86//3 85//3 67//3
f 87//3 86//3 67//3
f 88//3 87//3 67//3
f 89//3 88//3 67//3
f 90//3 89//3 67//3
f 91//3 90//3 67//3
f 92//3 91//3 67//3
f 93//3 92//3 67//3
f 94//3 93//3 67//3
f 95//3 94//3 67//3
f 96//3 95//3 67//3
f 97//3 96//3 67//3
f 98//3 97//3 67//3
f 99//3 98//3 67//3
f 101//1 132//1 100//1
f 100//1 102//1 101//1
f 100//1 103//1 102//1
f 100//1 104//1 103//1
f 100//1 105//1 104//1
f 100//1 106//1 105//1
f 100//1 107//1 106//1
f 100//1 108//1 107//1
f 100//1 109//1 108//1
f 100//1 110//1 109//1
f 100//1 111//1 110//1
f 100//1 112//1 111//1
f 100//2 113//2 112//2
f 100//1 114//1 113//1
f 100//1 115//1 114//1
f 100//1 116//1 115//1
f 100//1 117//1 116//1
f 100//1 118//1 117//1
f 100//1 119//1 118//1
f 100//1 120//1 119//1
f 100//1 121//1 120//1
f 100//1 122//1 121//1
f 100//1 123//1 122//1
f 100//1 124//1 123//1
f 100//1 125//1 124//1
f 100//1 126//1 125//1
f 100//1 127//1 126//1
f 100//2 128//2 127//2
f 100//1 129//1 128//1
f 100//1 130//1 129//1
f 100//1 131//1 130//1
f 100//1 132//1 131//1
f 132//4 101//4 98//4
f 132//4 98//4 99//4
f 101//5 102//5 97//5
f 101//5 97//5 98//5
f 102//6 103//6 96//6
f 102//6 96//6 97//6
f 103//7 104//7 95//7
f 103//7 95//7 96//7
f 104//8 105//8 94//8
f 104//8 94//8 95//8
f 105//9 106//9 93//9
f 105//9 93//9 94//9
f 106//10 107//10 92//10
f 106//10 92//10 93//10
f 107//11 108//11 91//11
f 107//11 91//11 92//11
f 108//12 109//12 90//12
f 108//12 90//12 91//12
f 109//13 110//13 89//13
f 109//13 89//13 90//13
f 110//14 111//14 88//14
f 110//14 88//14 89//14
f 111//15 112//15 87//15
f 111//15 87//15 88//15
f 112//16 113//16 86//16
f 112//16 86//16 87//16
f 113//17 114//17 85//17
f 113//17 85//17 86//17
f 114//18 115//18 84//18
f 114//18 84//18 85//18
f 115//19 116//19 83//19
f 115//19 83//19 84//19
f 116//20 117//20 82//20
f 116//21 82//21 83//21
f 117//22 118//22 81//22
f 117//22 81//22 82//22
f 118//23 119//23 80//23
f 118//23 80//23 81//23
f 119//24 120//24 79//24
f 119//24 79//24 80//24
f 120//25 121//25 78//25
f 120//25 78//25 79//25
f 121//26 122//26 77//26
f 121//26 77//26 78//26
f 122//27 123//27 76//27
f 122//27 76//27 77//27
f 123//28 124//28 75//28
f 123//29 75//29 76//29
f 124//30 125//30 74//30
f 124//30 74//30 75//30
f 125//31 126//31 73//31
f 125//31 73//31 74//31
f 126//32 127//32 72//32
f 126//32 72//32 73//32
f 127//33 128//33 71//33
f 127//33 71//33 72//33
f 128//34 129//34 70//34
f 128//34 70//34 71//34
f 129//35 130//35 69//35
f 129//35 69//35 70//35
f 130//36 131//36 68//36
f 130//36 68//36 69//36
f 131//37 132//37 99//37
f 131//37 99//37 68//37
f 2//37 1//37 34//37
f 2//37 34//37 65//37
f 3//36 2//36 65//36
f 3//36 65//36 64//36
f 4//35 3//35 64//35
f 4//35 64//35 63//35
f 5//34 4//34 63//34
f 5//34 63//34 62//34
f 6//33 5//33 62//33
f 6//33 62//33 61//33
f 7//32 6//32 61//32
f 7//32 61//32 60//32
f 8//31 7//31 60//31
f 8//31 60//31 59//31
f 9//30 8//30 59//30
f 9//30 59//30 58//30
f 10//28 9//28 58//28
f 10//29 58//29 57//29
f 11//27 10//27 57//27
f 11//27 57//27 56//27
f 12//26 11//26 56//26
f 12//26 56//26 55//26
f 13//25 12//25 55//25
f 13//25 55//25 54//25
f 14//24 13//24 54//24
f 14//24 54//24 53//24
f 15//23 14//23 53//23
f 15//23 53//23 52//23
f 16//22 15//22 52//22
f 16//22 52//22 51//22
f 17//20 16//20 51//20
f 17//21 51//21 50//21
f 18//19 17//19 50//19
f 18//19 50//19 49//19
f 19//18 18//18 49//18
f 19//18 49//18 48//18
f 20//17 19//17 48//17
f 20//17 48//17 47//17
f 21//16 20//16 47//16
f 21//16 47//16 46//16
f 22//15 21//15 46//15
f 22//15 46//15 45//15
f 23//14 22//14 45//14
f 23//14 45//14 44//14
f 24//13 23//13 44//13
f 24//13 44//13 43//13
f 25//12 24//12 43//12
f 25//12 43//12 42//12
f 26//11 25//11 42//11
f 26//11 42//11 41//11
f 27//10 26//10 41//10
f 27//10 41//10 40//10
f 28//9 27//9 40//9
f 28//9 40//9 39//9
f 29//8 28//8 39//8
f 29//8 39//8 38//8
f 30//7 29//7 38//7
f 30//7 38//7 37//7
f 31//6 30//6 37//6
f 31//6 37//6 36//6
f 32//5 31//5 36//5
f 32//5 36//5 35//5
f 1//4 32//4 35//4
f 1//4 35//4 34//4
