# Blender3D v245 OBJ File: TETOd.blend
# www.blender3d.org
mtllib TETOd.mtl
v 3.581639 0.185682 -11.123164
v 3.581639 0.185682 -0.405076
v 2.487634 0.185682 -0.405076
v 2.487634 0.185682 -11.123166
v 2.253204 1.008157 -11.123166
v 2.253204 1.008157 -0.405076
v 3.816069 1.008157 -0.405076
v 3.816069 1.008157 -11.123164
vn -0.961698 -0.274112 0.000000
vn 0.000002 0.000000 -1.000000
vn 0.000001 -0.000000 -1.000000
vn 0.961698 -0.274112 0.000000
vn 0.000000 0.000000 1.000000
vn 0.000000 -1.000000 0.000000
usemtl Material.001
s off
f 6//1 5//1 4//1
f 6//1 4//1 3//1
f 1//2 4//2 5//2
f 1//3 5//3 8//3
f 2//4 1//4 8//4
f 2//4 8//4 7//4
f 7//5 6//5 3//5
f 7//5 3//5 2//5
f 1//6 2//6 3//6
f 1//6 3//6 4//6
