# Blender3D v243 OBJ File: TETOa.blend
# www.blender3d.org
mtllib TETOa.mtl
v 5.925169 0.016527 -11.226411
v 5.925169 0.016527 -0.301830
v 0.115618 0.016527 -0.301830
v 0.115618 0.016527 -11.226413
v 0.115618 1.008157 -11.226413
v 0.115618 1.008157 -0.301830
v 5.925169 1.008157 -0.301830
v 5.925169 1.008157 -11.226411
vn 0.000000 -1.000000 0.000000
vn 0.000000 -0.000000 -1.000000
vn -1.000000 0.000000 0.000000
vn -0.000000 0.000000 1.000000
vn 1.000000 0.000000 0.000000
vn 0.000000 1.000000 -0.000000
usemtl Material.001
s 1
f 8//1 7//1 6//1
f 8//1 6//1 5//1
f 2//2 3//2 7//2
f 3//2 6//2 7//2
f 1//3 2//3 8//3
f 2//3 7//3 8//3
f 4//4 1//4 5//4
f 1//4 8//4 5//4
f 3//5 4//5 6//5
f 4//5 5//5 6//5
f 1//6 4//6 3//6
f 1//6 3//6 2//6
