# Blender3D v245 OBJ File: CADEIRA1a.blend
# www.blender3d.org
mtllib CADEIRA1a.mtl
v 3.239769 -0.246769 -5.054243
v 3.239769 -0.246771 -7.130126
v -0.043611 -0.246770 -7.130127
v -0.043611 -0.246770 -5.054244
v -0.043611 -0.210784 -7.148588
v 3.239769 -0.210784 -7.148587
v 3.239769 -0.148849 -7.148587
v -0.043611 -0.148849 -7.148588
v 3.272484 -0.210784 -7.130126
v 3.272484 -0.210783 -5.054243
v 3.272484 -0.148849 -5.054243
v 3.272484 -0.148849 -7.130126
v 3.239769 -0.210783 -5.035782
v -0.043611 -0.210783 -5.035782
v -0.043611 -0.148849 -5.035782
v 3.239769 -0.148849 -5.035782
v -0.076326 -0.210783 -5.054243
v -0.076326 -0.210784 -7.130127
v -0.076326 -0.148849 -7.130127
v -0.076326 -0.148849 -5.054243
v -0.043611 -0.112862 -7.130127
v 3.239769 -0.112862 -7.130126
v 3.239769 -0.112862 -5.054243
v -0.043611 -0.112863 -5.054244
v -0.043611 -4.142480 -3.102325
v 3.239769 -4.142481 -3.102324
v 3.239769 -0.500582 -3.102324
v -0.043611 -0.500581 -3.102325
v -0.076326 -4.142481 -3.138311
v -0.076326 -0.500581 -3.138311
v -0.076326 -0.500581 -3.200246
v -0.076326 -4.142481 -3.200246
v 3.239769 -4.174868 -3.138311
v -0.043611 -4.174868 -3.138311
v -0.043611 -4.174868 -3.200246
v 3.239769 -4.174868 -3.200245
v 3.272485 -0.500582 -3.138311
v 3.272484 -4.142481 -3.138311
v 3.272484 -4.142481 -3.200245
v 3.272485 -0.500582 -3.200246
v -0.043611 -0.468193 -3.138311
v 3.239769 -0.468194 -3.138311
v 3.239769 -0.468194 -3.200246
v -0.043611 -0.468193 -3.200246
v -0.043611 -4.142480 -3.236232
v -0.043611 -0.500581 -3.236233
v 3.239769 -0.500582 -3.236232
v 3.239769 -4.142481 -3.236232
v 3.591218 -5.762474 -5.025025
v 1.797000 -5.762001 -5.025025
v 1.796706 -4.088892 -5.025025
v 3.439141 -3.691972 -5.025025
v 1.814994 -4.024308 -5.025025
v 2.867274 -3.147448 -5.025025
v 2.897877 -3.075395 -5.025025
v 2.912517 -0.385515 -5.025025
v 3.597867 -0.388121 -5.025025
v 3.629326 -5.763119 -5.059921
v 3.634565 -0.388261 -5.059921
v 3.634565 -0.388261 -5.130970
v 3.629326 -5.763119 -5.130970
v 3.599703 -0.353233 -5.059921
v 2.906050 -0.350594 -5.059921
v 2.906050 -0.350594 -5.130970
v 3.599703 -0.353233 -5.130970
v 2.871051 -0.385356 -5.059921
v 2.863048 -3.053173 -5.059921
v 2.863048 -3.053173 -5.130970
v 2.871051 -0.385356 -5.130970
v 2.844601 -3.117754 -5.059921
v 1.814994 -4.024309 -5.059921
v 1.814994 -4.024309 -5.130970
v 2.844601 -3.117754 -5.130970
v 1.796710 -4.088890 -5.059921
v 1.797000 -5.762001 -5.059921
v 1.797000 -5.762001 -5.130970
v 1.796710 -4.088890 -5.130970
v 1.834447 -5.797000 -5.059921
v 3.594402 -5.797428 -5.059921
v 3.594402 -5.797428 -5.130970
v 1.834447 -5.797000 -5.130970
v 1.797000 -5.762001 -5.165866
v 3.591218 -5.762474 -5.165865
v 1.796709 -4.088885 -5.165866
v 2.867274 -3.147447 -5.165865
v 1.814997 -4.024308 -5.165866
v 2.912517 -0.385515 -5.165865
v 2.897877 -3.075395 -5.165865
v 3.597867 -0.388121 -5.165865
v 3.439140 -3.691971 -5.165865
vn 0.448701 -0.407914 0.795156
vn 0.448710 -0.407912 -0.795152
vn -0.448708 -0.407921 -0.795149
vn -0.448692 -0.407916 0.795160
vn 0.448710 0.407912 -0.795152
vn -0.448710 0.407912 -0.795152
vn 0.448703 0.407905 0.795160
vn -0.448690 0.407925 0.795157
vn -0.592679 -0.598674 0.538814
vn 0.592680 -0.598683 0.538803
vn -0.592688 0.598673 0.538806
vn 0.592683 0.598677 0.538806
vn -0.592681 -0.598675 -0.538811
vn -0.592689 0.598675 -0.538803
vn 0.592683 0.598678 -0.538806
vn 0.592680 -0.598683 -0.538803
vn 0.569063 0.566352 0.596165
vn -0.539428 0.543113 0.643465
vn -0.682829 -0.730579 -0.000002
vn 0.552982 -0.562904 0.614288
vn -0.682829 -0.730578 0.000002
vn -0.539424 0.543109 -0.643470
vn 0.552979 -0.562901 -0.614293
vn 0.569060 0.566349 -0.596171
vn -0.000000 0.000000 1.000000
vn 0.000000 -0.000000 -1.000000
vn -0.000243 -1.000000 0.000000
vn -1.000000 -0.000173 0.000000
vn -0.660833 0.750533 0.000000
vn -0.999996 0.003000 0.000000
vn 0.003804 0.999993 0.000000
vn 1.000000 -0.000975 0.000000
vn 0.689089 -0.000853 -0.724676
vn 0.675327 -0.000658 -0.737518
vn 0.002690 0.707095 -0.707114
vn 0.002689 0.707106 -0.707103
vn -0.706548 0.003845 -0.707655
vn -0.643874 0.001931 -0.765129
vn -0.640169 0.768234 -0.000049
vn -0.451671 0.512980 -0.729962
vn -1.000000 -0.000173 0.000003
vn -1.000000 -0.000174 0.000041
vn -0.000186 -0.706159 -0.708053
vn -0.000172 -0.706525 -0.707688
vn 0.700792 -0.713366 0.000000
vn -0.000172 -0.706530 0.707683
vn -0.000187 -0.706154 0.708058
vn -0.682829 -0.730578 0.000000
vn -1.000000 -0.000173 -0.000116
vn -1.000000 -0.000176 -0.000003
vn -0.962182 0.272406 0.000000
vn -0.640168 0.768235 -0.000006
vn -0.451673 0.512982 0.729959
vn -0.961543 0.274654 0.000000
vn -0.706553 0.003845 0.707650
vn -0.643879 0.001931 0.765125
vn -0.704696 0.709510 0.000000
vn 0.002690 0.707100 0.707109
vn 0.002689 0.707111 0.707098
vn 0.708793 0.705416 0.000000
vn 0.689094 -0.000853 0.724672
vn 0.675332 -0.000658 0.737514
vn -0.673770 0.286179 -0.681275
vn -0.635772 0.181601 -0.750210
vn -0.962159 0.272487 -0.000085
vn -0.962182 0.272406 0.000077
vn -0.962169 0.272455 -0.000093
vn -0.962182 0.272406 0.000003
vn -0.673774 0.286180 0.681271
vn -0.635777 0.181602 0.750205
vn 0.000000 1.000000 -0.000000
vn 1.000000 -0.000000 0.000000
vn 0.000000 -1.000000 0.000000
vn -1.000000 0.000000 0.000000
vn 0.739938 -0.000000 -0.672675
vn 0.000000 0.743297 -0.668962
vn -0.739943 -0.000000 -0.672669
vn -0.000000 -0.743302 -0.668956
vn 0.000000 -0.743292 -0.668967
vn 0.703540 0.710656 -0.000000
vn 0.000000 0.743294 0.668965
vn 0.000000 0.743297 0.668962
vn -0.703545 0.710651 -0.000000
vn -0.703545 0.710650 0.000000
vn 0.703535 -0.710661 0.000000
vn 0.739938 -0.000000 0.672675
vn -0.703540 -0.710656 0.000000
vn -0.000000 -0.743302 0.668956
vn -0.000000 -0.743290 0.668970
vn -0.739941 0.000000 0.672672
vn -0.739937 0.672677 -0.000000
vn -0.739945 0.672667 0.000000
vn 0.000000 0.456433 0.889758
vn -0.000000 0.456452 0.889748
vn -0.491437 0.000000 0.870913
vn 0.739945 0.672667 -0.000000
vn 0.491447 0.000000 0.870908
vn -0.491456 0.000000 -0.870902
vn 0.000000 0.456442 -0.889753
vn 0.491456 0.000000 -0.870902
vn 0.000000 -0.456442 0.889753
vn -0.739937 -0.672677 -0.000000
vn -0.739945 -0.672667 0.000000
vn 0.000000 -0.456452 -0.889748
vn 0.000000 -0.456442 -0.889753
vn 0.739937 -0.672677 0.000000
vn 0.739945 -0.672667 0.000000
vn 0.000000 -1.000000 0.000001
usemtl Material
s off
f 1//1 10//1 13//1
f 2//2 6//2 9//2
f 3//3 18//3 5//3
f 4//4 14//4 17//4
f 7//5 22//5 12//5
f 8//6 19//6 21//6
f 11//7 23//7 16//7
f 15//8 24//8 20//8
f 34//9 25//9 29//9
f 38//10 26//10 33//10
f 41//11 30//11 28//11
f 42//12 27//12 37//12
f 45//13 35//13 32//13
f 46//14 31//14 44//14
f 47//15 43//15 40//15
f 48//16 39//16 36//16
f 62//17 57//17 59//17
f 66//18 56//18 63//18
f 78//19 50//19 75//19
f 79//20 58//20 49//20
f 82//21 81//21 76//21
f 87//22 69//22 64//22
f 83//23 61//23 80//23
f 89//24 65//24 60//24
f 53//25 51//25 52//25
f 55//25 54//25 52//25
f 90//26 84//26 86//26
f 90//26 85//26 88//26
f 50//25 49//25 52//25
f 51//25 50//25 52//25
f 54//25 53//25 52//25
f 56//25 55//25 52//25
f 57//25 56//25 52//25
f 52//25 49//25 57//25
f 90//26 83//26 82//26
f 90//26 82//26 84//26
f 90//26 86//26 85//26
f 90//26 88//26 87//26
f 90//26 87//26 89//26
f 89//26 83//26 90//26
f 81//27 80//27 79//27
f 81//27 79//27 78//27
f 77//28 76//28 75//28
f 77//28 75//28 74//28
f 73//29 72//29 71//29
f 73//29 71//29 70//29
f 69//30 68//30 67//30
f 69//30 67//30 66//30
f 65//31 64//31 63//31
f 65//31 63//31 62//31
f 61//32 60//32 59//32
f 61//32 59//32 58//32
f 89//33 60//33 83//33
f 60//34 61//34 83//34
f 87//35 64//35 65//35
f 87//36 65//36 89//36
f 87//37 88//37 68//37
f 87//38 68//38 69//38
f 86//39 72//39 85//39
f 72//40 73//40 85//40
f 82//41 76//41 77//41
f 82//42 77//42 84//42
f 82//43 83//43 81//43
f 83//44 80//44 81//44
f 80//45 61//45 58//45
f 80//45 58//45 79//45
f 79//46 49//46 78//46
f 49//47 50//47 78//47
f 81//48 78//48 75//48
f 81//48 75//48 76//48
f 74//49 75//49 51//49
f 75//50 50//50 51//50
f 74//51 71//51 72//51
f 74//51 72//51 77//51
f 71//52 53//52 54//52
f 71//53 54//53 70//53
f 70//54 67//54 68//54
f 70//54 68//54 73//54
f 67//55 55//55 56//55
f 67//56 56//56 66//56
f 66//57 63//57 64//57
f 66//57 64//57 69//57
f 63//58 56//58 62//58
f 56//59 57//59 62//59
f 62//60 59//60 60//60
f 62//60 60//60 65//60
f 59//61 57//61 49//61
f 59//62 49//62 58//62
f 88//63 85//63 73//63
f 88//64 73//64 68//64
f 86//65 84//65 72//65
f 84//66 77//66 72//66
f 74//67 51//67 53//67
f 74//68 53//68 71//68
f 70//69 54//69 55//69
f 70//70 55//70 67//70
f 48//26 45//26 47//26
f 45//26 46//26 47//26
f 44//71 41//71 42//71
f 44//71 42//71 43//71
f 40//72 37//72 38//72
f 40//72 38//72 39//72
f 36//73 33//73 34//73
f 36//73 34//73 35//73
f 32//74 29//74 30//74
f 32//74 30//74 31//74
f 28//25 25//25 27//25
f 25//25 26//25 27//25
f 39//75 48//75 47//75
f 39//75 47//75 40//75
f 47//76 46//76 44//76
f 47//76 44//76 43//76
f 46//77 45//77 31//77
f 45//77 32//77 31//77
f 45//78 48//78 36//78
f 45//79 36//79 35//79
f 43//80 42//80 37//80
f 43//80 37//80 40//80
f 42//81 41//81 28//81
f 42//82 28//82 27//82
f 41//83 44//83 31//83
f 41//84 31//84 30//84
f 39//85 38//85 33//85
f 39//85 33//85 36//85
f 37//86 27//86 26//86
f 37//86 26//86 38//86
f 35//87 34//87 29//87
f 35//87 29//87 32//87
f 34//88 33//88 26//88
f 34//89 26//89 25//89
f 30//90 29//90 25//90
f 30//90 25//90 28//90
f 19//91 20//91 24//91
f 19//92 24//92 21//92
f 15//93 16//93 23//93
f 15//94 23//94 24//94
f 14//95 15//95 20//95
f 14//95 20//95 17//95
f 12//96 22//96 23//96
f 12//96 23//96 11//96
f 10//97 11//97 16//97
f 10//97 16//97 13//97
f 8//98 5//98 18//98
f 8//98 18//98 19//98
f 7//99 8//99 21//99
f 7//99 21//99 22//99
f 6//100 7//100 12//100
f 6//100 12//100 9//100
f 4//101 1//101 13//101
f 4//101 13//101 14//101
f 3//102 4//102 18//102
f 4//103 17//103 18//103
f 2//104 3//104 5//104
f 2//105 5//105 6//105
f 10//106 1//106 2//106
f 10//107 2//107 9//107
f 21//71 24//71 22//71
f 24//71 23//71 22//71
f 17//74 20//74 19//74
f 17//74 19//74 18//74
f 13//25 16//25 15//25
f 13//25 15//25 14//25
f 9//72 12//72 11//72
f 9//72 11//72 10//72
f 5//26 8//26 7//26
f 5//26 7//26 6//26
f 1//108 4//108 2//108
f 4//73 3//73 2//73
