# Blender3D v245 OBJ File: BIROLATERALc.blend
# www.blender3d.org
mtllib BIROLATERALc.mtl
v 0.030185 -8.346988 -4.091875
v 0.030454 -8.345118 -2.386624
v 10.062137 -8.328616 -2.386682
v 10.061868 -8.330486 -4.091931
v 10.062466 -8.606896 -4.091906
v 10.062736 -8.605026 -2.386655
v 0.031049 -8.621525 -2.386597
v 0.030782 -8.623397 -4.091848
v 9.919623 -9.368833 -4.092000
v 0.030185 -2.529107 -4.091527
v 0.030454 -9.368833 -4.092000
v 10.062139 -9.368640 -4.092000
v 10.061870 -2.528917 -4.092000
v 10.062468 -2.529005 -4.366000
v 10.062736 -9.368730 -4.366000
v 0.031049 -9.368922 -4.366063
v 0.030784 -2.529197 -4.367935
vn 0.000006 0.000000 -1.000000
vn 0.000193 -0.000274 -1.000000
vn 0.000019 -1.000000 0.000327
vn -0.999998 -0.000039 -0.002171
vn -0.999998 -0.000039 -0.002167
vn -0.000019 1.000000 -0.000324
vn -0.000019 1.000000 -0.000323
vn 0.999998 0.000039 0.002182
vn 0.999998 0.000039 0.002179
vn 0.000047 -0.000069 1.000000
vn 0.000000 0.000000 1.000000
vn 0.001645 -0.999998 0.001096
vn 0.001645 -0.999998 0.001098
vn 0.000006 0.000098 1.000000
vn 0.000006 0.000097 1.000000
vn -0.999998 -0.002160 0.000160
vn -0.999998 -0.002153 0.000159
vn -0.000005 -0.000097 -1.000000
vn -0.000006 -0.000091 -1.000000
vn 0.999998 0.002163 -0.000160
vn 0.999998 0.002167 -0.000161
vn -0.001645 0.999998 -0.001096
usemtl Material.002
s off
f 15//1 16//1 14//1
f 16//2 17//2 14//2
f 12//3 11//3 16//3
f 12//3 16//3 15//3
f 11//4 10//4 16//4
f 10//5 17//5 16//5
f 10//6 13//6 17//6
f 13//7 14//7 17//7
f 13//8 12//8 14//8
f 12//9 15//9 14//9
f 10//10 11//10 13//10
f 11//11 12//11 13//11
f 6//12 7//12 5//12
f 7//13 8//13 5//13
f 3//14 2//14 7//14
f 3//15 7//15 6//15
f 2//16 1//16 8//16
f 2//17 8//17 7//17
f 1//18 4//18 8//18
f 4//19 5//19 8//19
f 4//20 3//20 5//20
f 3//21 6//21 5//21
f 1//22 2//22 4//22
f 2//22 3//22 4//22
