# Blender3D v245 OBJ File: LIXEIRA1a.blend
# www.blender3d.org
mtllib LIXEIRA1a.mtl
v 1.705476 -0.759107 0.000001
v 1.775516 -0.681321 0.000001
v 1.837040 -0.596640 0.000001
v 1.889376 -0.505991 0.000001
v 1.931950 -0.410369 0.000001
v 1.964295 -0.310820 0.000001
v 1.986058 -0.208435 0.000001
v 1.996999 -0.104337 0.000001
v 1.996999 0.000335 0.000001
v 1.986058 0.104434 0.000001
v 1.964295 0.206818 0.000001
v 1.931950 0.306367 0.000001
v 1.889376 0.401990 0.000001
v 1.837040 0.492638 0.000001
v 1.775516 0.577319 0.000001
v 1.705477 0.655106 0.000001
v 1.627690 0.725145 0.000001
v 1.543009 0.786669 0.000001
v 1.452361 0.839005 0.000001
v 1.356738 0.881579 0.000001
v 1.257190 0.913925 0.000001
v 1.154805 0.935687 0.000001
v 1.050707 0.946629 0.000001
v 0.946035 0.946629 0.000001
v 0.841937 0.935688 0.000001
v 0.739552 0.913926 0.000001
v 0.640003 0.881580 0.000001
v 0.544381 0.839007 0.000001
v 0.453732 0.786671 0.000001
v 0.369051 0.725147 0.000001
v 0.291264 0.655108 0.000001
v 0.221225 0.577322 0.000001
v 0.159700 0.492640 0.000001
v 0.107364 0.401992 0.000001
v 0.064790 0.306370 0.000001
v 0.032444 0.206821 0.000001
v 0.010682 0.104437 0.000001
v -0.000260 0.000338 0.000001
v -0.000260 -0.104334 0.000001
v 0.010681 -0.208432 0.000001
v 0.032443 -0.310817 0.000001
v 0.064788 -0.410365 0.000001
v 0.107361 -0.505988 0.000001
v 0.159697 -0.596637 0.000001
v 0.221221 -0.681318 0.000001
v 0.291260 -0.759105 0.000001
v 0.369046 -0.829144 0.000001
v 0.453727 -0.890669 0.000001
v 0.544375 -0.943005 0.000001
v 0.639997 -0.985580 0.000001
v 0.739546 -1.017925 0.000001
v 0.841930 -1.039688 0.000001
v 0.946029 -1.050630 0.000001
v 1.050701 -1.050631 0.000001
v 1.154799 -1.039690 0.000001
v 1.257184 -1.017928 0.000001
v 1.356733 -0.985583 0.000001
v 1.452355 -0.943010 0.000001
v 1.543004 -0.890674 0.000001
v 1.627686 -0.829150 0.000001
v 0.998370 -0.052001 0.000001
v 1.690617 -0.906865 -2.494636
v 1.597468 -0.974542 -2.494636
v 1.497754 -1.032111 -2.494636
v 1.392569 -1.078942 -2.494636
v 1.283065 -1.114521 -2.494636
v 1.170442 -1.138459 -2.494636
v 1.055934 -1.150494 -2.494636
v 0.940795 -1.150493 -2.494636
v 0.826287 -1.138457 -2.494636
v 0.713664 -1.114518 -2.494636
v 0.604160 -1.078938 -2.494636
v 0.498976 -1.032106 -2.494636
v 0.399263 -0.974536 -2.494636
v 0.306114 -0.906859 -2.494636
v 0.220549 -0.829815 -2.494636
v 0.143506 -0.744250 -2.494636
v 0.075830 -0.651101 -2.494636
v 0.018261 -0.551387 -2.494636
v -0.028570 -0.446202 -2.494636
v -0.064150 -0.336698 -2.494636
v -0.088088 -0.224075 -2.494636
v -0.100123 -0.109567 -2.494636
v -0.100123 0.005572 -2.494636
v -0.088087 0.120080 -2.494636
v -0.064148 0.232703 -2.494636
v -0.028568 0.342206 -2.494636
v 0.018264 0.447391 -2.494636
v 0.075833 0.547104 -2.494636
v 0.143511 0.640253 -2.494636
v 0.220554 0.725818 -2.494636
v 0.306119 0.802861 -2.494636
v 0.399268 0.870538 -2.494636
v 0.498982 0.928107 -2.494636
v 0.604167 0.974938 -2.494636
v 0.713670 1.010518 -2.494636
v 0.826293 1.034456 -2.494636
v 0.940802 1.046492 -2.494636
v 1.055941 1.046491 -2.494636
v 1.170449 1.034456 -2.494636
v 1.283072 1.010517 -2.494636
v 1.392575 0.974937 -2.494636
v 1.497760 0.928106 -2.494636
v 1.597473 0.870536 -2.494636
v 1.690623 0.802859 -2.494636
v 1.776187 0.725816 -2.494636
v 1.853230 0.640251 -2.494636
v 1.920907 0.547102 -2.494636
v 1.978477 0.447388 -2.494636
v 2.025308 0.342204 -2.494636
v 2.060888 0.232700 -2.494636
v 2.084827 0.120077 -2.494636
v 2.096862 0.005569 -2.494636
v 2.096862 -0.109571 -2.494636
v 2.084827 -0.224079 -2.494636
v 2.060888 -0.336702 -2.494636
v 2.025308 -0.446206 -2.494636
v 1.978477 -0.551391 -2.494636
v 1.920907 -0.651104 -2.494636
v 1.853230 -0.744253 -2.494636
v 1.776187 -0.829818 -2.494636
v 1.763196 -0.816827 -2.494636
v 1.838952 -0.732691 -2.494636
v 1.905499 -0.641097 -2.494636
v 1.962106 -0.543050 -2.494636
v 2.008156 -0.439622 -2.494636
v 2.043141 -0.331947 -2.494636
v 2.066680 -0.221205 -2.494636
v 2.078515 -0.108609 -2.494636
v 2.078515 0.004607 -2.494636
v 2.066680 0.117203 -2.494636
v 2.043141 0.227945 -2.494636
v 2.008156 0.335620 -2.494636
v 1.962107 0.439047 -2.494636
v 1.905499 0.537095 -2.494636
v 1.838952 0.628689 -2.494636
v 1.763196 0.712825 -2.494636
v 1.679060 0.788581 -2.494636
v 1.587467 0.855128 -2.494636
v 1.489419 0.911736 -2.494636
v 1.385991 0.957785 -2.494636
v 1.278316 0.992770 -2.494636
v 1.167575 1.016309 -2.494636
v 1.054979 1.028144 -2.494636
v 0.941763 1.028144 -2.494636
v 0.829167 1.016310 -2.494636
v 0.718426 0.992771 -2.494636
v 0.610751 0.957786 -2.494636
v 0.507323 0.911737 -2.494636
v 0.409275 0.855129 -2.494636
v 0.317681 0.788583 -2.494636
v 0.233545 0.712827 -2.494636
v 0.157789 0.628691 -2.494636
v 0.091242 0.537098 -2.494636
v 0.034634 0.439050 -2.494636
v -0.011415 0.335622 -2.494636
v -0.046401 0.227948 -2.494636
v -0.069941 0.117206 -2.494636
v -0.081775 0.004610 -2.494636
v -0.081775 -0.108606 -2.494636
v -0.069942 -0.221201 -2.494636
v -0.046403 -0.331943 -2.494636
v -0.011418 -0.439618 -2.494636
v 0.034631 -0.543046 -2.494636
v 0.091238 -0.641094 -2.494636
v 0.157785 -0.732688 -2.494636
v 0.233541 -0.816824 -2.494636
v 0.317676 -0.892581 -2.494636
v 0.409269 -0.959127 -2.494636
v 0.507317 -1.015736 -2.494636
v 0.610745 -1.061785 -2.494636
v 0.718419 -1.096771 -2.494636
v 0.829161 -1.120311 -2.494636
v 0.941756 -1.132146 -2.494636
v 1.054972 -1.132146 -2.494636
v 1.167568 -1.120313 -2.494636
v 1.278310 -1.096774 -2.494636
v 1.385985 -1.061789 -2.494636
v 1.489413 -1.015741 -2.494636
v 1.587461 -0.959133 -2.494636
v 1.679055 -0.892587 -2.494636
v 0.998370 -0.052001 -0.046520
v 1.617174 -0.816170 -0.046520
v 1.533907 -0.876666 -0.046520
v 1.444772 -0.928128 -0.046520
v 1.350747 -0.969990 -0.046520
v 1.252861 -1.001795 -0.046520
v 1.152186 -1.023193 -0.046520
v 1.049827 -1.033951 -0.046520
v 0.946903 -1.033950 -0.046520
v 0.844543 -1.023192 -0.046520
v 0.743869 -1.001792 -0.046520
v 0.645983 -0.969986 -0.046520
v 0.551958 -0.928123 -0.046520
v 0.462824 -0.876661 -0.046520
v 0.379557 -0.816164 -0.046520
v 0.303070 -0.747294 -0.046520
v 0.234201 -0.670807 -0.046520
v 0.173705 -0.587540 -0.046520
v 0.122243 -0.498405 -0.046520
v 0.080381 -0.404380 -0.046520
v 0.048576 -0.306494 -0.046520
v 0.027178 -0.205819 -0.046520
v 0.016419 -0.103460 -0.046520
v 0.016420 -0.000536 -0.046520
v 0.027179 0.101824 -0.046520
v 0.048578 0.202498 -0.046520
v 0.080383 0.300384 -0.046520
v 0.122246 0.394409 -0.046520
v 0.173708 0.483543 -0.046520
v 0.234205 0.566810 -0.046520
v 0.303075 0.643297 -0.046520
v 0.379562 0.712166 -0.046520
v 0.462829 0.772663 -0.046520
v 0.551963 0.824124 -0.046520
v 0.645989 0.865987 -0.046520
v 0.743875 0.897792 -0.046520
v 0.844549 0.919191 -0.046520
v 0.946909 0.929949 -0.046520
v 1.049833 0.929949 -0.046520
v 1.152192 0.919190 -0.046520
v 1.252867 0.897791 -0.046520
v 1.350753 0.865986 -0.046520
v 1.444778 0.824123 -0.046520
v 1.533912 0.772661 -0.046520
v 1.617179 0.712164 -0.046520
v 1.693666 0.643295 -0.046520
v 1.762535 0.566808 -0.046520
v 1.823032 0.483541 -0.046520
v 1.874494 0.394407 -0.046520
v 1.916357 0.300381 -0.046520
v 1.948162 0.202495 -0.046520
v 1.969561 0.101821 -0.046520
v 1.980319 -0.000539 -0.046520
v 1.980319 -0.103463 -0.046520
v 1.969561 -0.205822 -0.046520
v 1.948162 -0.306497 -0.046520
v 1.916357 -0.404383 -0.046520
v 1.874494 -0.498409 -0.046520
v 1.823032 -0.587543 -0.046520
v 1.762535 -0.670810 -0.046520
v 1.693666 -0.747297 -0.046520
vn -0.000000 0.000000 1.000000
vn -0.000000 -0.000000 -1.000000
vn -0.742548 0.668593 -0.040078
vn -0.808367 0.587313 -0.040078
vn -0.865329 0.499599 -0.040078
vn -0.912811 0.406410 -0.040078
vn -0.950293 0.308768 -0.040078
vn -0.977361 0.207746 -0.040078
vn -0.977362 0.207746 -0.040078
vn -0.993723 0.104445 -0.040078
vn -0.993723 0.104444 -0.040078
vn -0.999197 0.000000 -0.040078
vn -0.993723 -0.104445 -0.040078
vn -0.993723 -0.104444 -0.040078
vn -0.977361 -0.207746 -0.040078
vn -0.977362 -0.207746 -0.040078
vn -0.950293 -0.308768 -0.040078
vn -0.912812 -0.406410 -0.040078
vn -0.865329 -0.499599 -0.040078
vn -0.808368 -0.587312 -0.040078
vn -0.808367 -0.587313 -0.040078
vn -0.742548 -0.668592 -0.040078
vn -0.668593 -0.742547 -0.040078
vn -0.668593 -0.742548 -0.040078
vn -0.587314 -0.808367 -0.040078
vn -0.587313 -0.808367 -0.040078
vn -0.499599 -0.865329 -0.040078
vn -0.406411 -0.912811 -0.040078
vn -0.406410 -0.912811 -0.040078
vn -0.308770 -0.950292 -0.040078
vn -0.207745 -0.977362 -0.040078
vn -0.104445 -0.993723 -0.040078
vn -0.000001 -0.999197 -0.040078
vn -0.000002 -0.999197 -0.040078
vn 0.104442 -0.993723 -0.040078
vn 0.104443 -0.993723 -0.040078
vn 0.207743 -0.977362 -0.040078
vn 0.207744 -0.977362 -0.040078
vn 0.308767 -0.950293 -0.040078
vn 0.406408 -0.912812 -0.040078
vn 0.499596 -0.865331 -0.040078
vn 0.587311 -0.808368 -0.040078
vn 0.668592 -0.742549 -0.040078
vn 0.668591 -0.742549 -0.040078
vn 0.742546 -0.668595 -0.040078
vn 0.808366 -0.587315 -0.040078
vn 0.808365 -0.587315 -0.040078
vn 0.865329 -0.499600 -0.040078
vn 0.912810 -0.406413 -0.040078
vn 0.912810 -0.406412 -0.040078
vn 0.950292 -0.308771 -0.040078
vn 0.977361 -0.207747 -0.040078
vn 0.993723 -0.104447 -0.040078
vn 0.993722 -0.104448 -0.040078
vn 0.999197 -0.000003 -0.040078
vn 0.993723 0.104441 -0.040078
vn 0.977362 0.207742 -0.040078
vn 0.977362 0.207741 -0.040078
vn 0.950294 0.308765 -0.040078
vn 0.950293 0.308766 -0.040078
vn 0.912813 0.406407 -0.040078
vn 0.865331 0.499595 -0.040078
vn 0.808369 0.587310 -0.040078
vn 0.742550 0.668590 -0.040078
vn 0.742551 0.668590 -0.040078
vn 0.668596 0.742545 -0.040078
vn 0.587316 0.808365 -0.040078
vn 0.499603 0.865327 -0.040078
vn 0.499602 0.865327 -0.040078
vn 0.406414 0.912810 -0.040078
vn 0.308773 0.950291 -0.040078
vn 0.207749 0.977361 -0.040078
vn 0.104449 0.993722 -0.040078
vn 0.000005 0.999197 -0.040078
vn 0.000006 0.999197 -0.040078
vn -0.104439 0.993723 -0.040078
vn -0.207741 0.977363 -0.040078
vn -0.207740 0.977363 -0.040078
vn -0.308764 0.950294 -0.040078
vn -0.308765 0.950294 -0.040078
vn -0.406405 0.912813 -0.040078
vn -0.406405 0.912814 -0.040078
vn -0.499593 0.865332 -0.040078
vn -0.587308 0.808371 -0.040078
vn -0.587308 0.808370 -0.040078
vn -0.668591 0.742549 -0.040078
vn 0.742550 -0.668596 0.039999
vn 0.742550 -0.668595 0.039999
vn 0.808370 -0.587315 0.039999
vn 0.808370 -0.587314 0.039999
vn 0.865332 -0.499600 0.039999
vn 0.912815 -0.406410 0.039999
vn 0.912814 -0.406412 0.039999
vn 0.950295 -0.308771 0.039999
vn 0.950295 -0.308769 0.039999
vn 0.977365 -0.207745 0.039999
vn 0.977365 -0.207744 0.039999
vn 0.993726 -0.104444 0.039999
vn 0.993726 -0.104445 0.039999
vn 0.999200 0.000000 0.039999
vn 0.993726 0.104444 0.039999
vn 0.993726 0.104445 0.039999
vn 0.977365 0.207745 0.039999
vn 0.977365 0.207744 0.039999
vn 0.950295 0.308770 0.039999
vn 0.912814 0.406411 0.039999
vn 0.865332 0.499600 0.039999
vn 0.808370 0.587314 0.039999
vn 0.742551 0.668595 0.039999
vn 0.742550 0.668595 0.039999
vn 0.668595 0.742550 0.039999
vn 0.587316 0.808369 0.039999
vn 0.587315 0.808369 0.039999
vn 0.499600 0.865332 0.039999
vn 0.499601 0.865332 0.039999
vn 0.406412 0.912814 0.039999
vn 0.308771 0.950295 0.039999
vn 0.308770 0.950295 0.039999
vn 0.207747 0.977365 0.039999
vn 0.207746 0.977365 0.039999
vn 0.104446 0.993726 0.039999
vn 0.000002 0.999200 0.039999
vn 0.000001 0.999200 0.039999
vn -0.104443 0.993726 0.039999
vn -0.207744 0.977365 0.039999
vn -0.308768 0.950296 0.039999
vn -0.308767 0.950296 0.039999
vn -0.406409 0.912815 0.039999
vn -0.406410 0.912815 0.039999
vn -0.499598 0.865333 0.039999
vn -0.587313 0.808371 0.039999
vn -0.668594 0.742551 0.039999
vn -0.742548 0.668597 0.039999
vn -0.808368 0.587317 0.039999
vn -0.808368 0.587316 0.039999
vn -0.865331 0.499602 0.039999
vn -0.912813 0.406414 0.039999
vn -0.950294 0.308772 0.039999
vn -0.950295 0.308772 0.039999
vn -0.977364 0.207748 0.039999
vn -0.977364 0.207749 0.039999
vn -0.993726 0.104448 0.039999
vn -0.993726 0.104447 0.039999
vn -0.999200 0.000003 0.039999
vn -0.993726 -0.104442 0.039999
vn -0.977366 -0.207742 0.039999
vn -0.977366 -0.207741 0.039999
vn -0.950296 -0.308767 0.039999
vn -0.912816 -0.406408 0.039999
vn -0.865334 -0.499597 0.039999
vn -0.808372 -0.587312 0.039999
vn -0.742553 -0.668592 0.039999
vn -0.668598 -0.742547 0.039999
vn -0.587318 -0.808367 0.039999
vn -0.499603 -0.865330 0.039999
vn -0.499604 -0.865330 0.039999
vn -0.406415 -0.912813 0.039999
vn -0.308774 -0.950294 0.039999
vn -0.308775 -0.950294 0.039999
vn -0.207750 -0.977364 0.039999
vn -0.207749 -0.977364 0.039999
vn -0.104449 -0.993726 0.039999
vn -0.104450 -0.993725 0.039999
vn -0.000006 -0.999200 0.039999
vn -0.000005 -0.999200 0.039999
vn 0.104440 -0.993726 0.039999
vn 0.207741 -0.977366 0.039999
vn 0.308765 -0.950297 0.039999
vn 0.406406 -0.912817 0.039999
vn 0.499595 -0.865335 0.039999
vn 0.587311 -0.808373 0.039999
vn 0.587310 -0.808373 0.039999
vn 0.668593 -0.742552 0.039999
usemtl Material
s off
f 61//1 1//1 2//1
f 61//1 2//1 3//1
f 61//1 3//1 4//1
f 61//1 4//1 5//1
f 61//1 5//1 6//1
f 61//1 6//1 7//1
f 61//1 7//1 8//1
f 61//1 8//1 9//1
f 61//1 9//1 10//1
f 61//1 10//1 11//1
f 61//1 11//1 12//1
f 61//1 12//1 13//1
f 61//1 13//1 14//1
f 61//1 14//1 15//1
f 61//1 15//1 16//1
f 61//1 16//1 17//1
f 61//1 17//1 18//1
f 61//1 18//1 19//1
f 61//1 19//1 20//1
f 61//1 20//1 21//1
f 61//1 21//1 22//1
f 61//1 22//1 23//1
f 61//1 23//1 24//1
f 61//1 24//1 25//1
f 61//1 25//1 26//1
f 61//1 26//1 27//1
f 61//1 27//1 28//1
f 61//1 28//1 29//1
f 61//1 29//1 30//1
f 61//1 30//1 31//1
f 61//1 31//1 32//1
f 61//1 32//1 33//1
f 61//1 33//1 34//1
f 61//1 34//1 35//1
f 61//1 35//1 36//1
f 61//1 36//1 37//1
f 61//1 37//1 38//1
f 61//1 38//1 39//1
f 61//1 39//1 40//1
f 61//1 40//1 41//1
f 61//1 41//1 42//1
f 61//1 42//1 43//1
f 61//1 43//1 44//1
f 61//1 44//1 45//1
f 61//1 45//1 46//1
f 61//1 46//1 47//1
f 61//1 47//1 48//1
f 61//1 48//1 49//1
f 61//1 49//1 50//1
f 61//1 50//1 51//1
f 61//1 51//1 52//1
f 61//1 52//1 53//1
f 61//1 53//1 54//1
f 61//1 54//1 55//1
f 61//1 55//1 56//1
f 61//1 56//1 57//1
f 61//1 57//1 58//1
f 61//1 58//1 59//1
f 61//1 59//1 60//1
f 60//1 1//1 61//1
f 241//2 242//2 182//2
f 240//2 241//2 182//2
f 239//2 240//2 182//2
f 238//2 239//2 182//2
f 237//2 238//2 182//2
f 236//2 237//2 182//2
f 235//2 236//2 182//2
f 234//2 235//2 182//2
f 233//2 234//2 182//2
f 232//2 233//2 182//2
f 231//2 232//2 182//2
f 230//2 231//2 182//2
f 229//2 230//2 182//2
f 228//2 229//2 182//2
f 227//2 228//2 182//2
f 226//2 227//2 182//2
f 225//2 226//2 182//2
f 224//2 225//2 182//2
f 223//2 224//2 182//2
f 222//2 223//2 182//2
f 221//2 222//2 182//2
f 220//2 221//2 182//2
f 219//2 220//2 182//2
f 218//2 219//2 182//2
f 217//2 218//2 182//2
f 216//2 217//2 182//2
f 215//2 216//2 182//2
f 214//2 215//2 182//2
f 213//2 214//2 182//2
f 212//2 213//2 182//2
f 211//2 212//2 182//2
f 210//2 211//2 182//2
f 209//2 210//2 182//2
f 208//2 209//2 182//2
f 207//2 208//2 182//2
f 206//2 207//2 182//2
f 205//2 206//2 182//2
f 204//2 205//2 182//2
f 203//2 204//2 182//2
f 202//2 203//2 182//2
f 201//2 202//2 182//2
f 200//2 201//2 182//2
f 199//2 200//2 182//2
f 198//2 199//2 182//2
f 197//2 198//2 182//2
f 196//2 197//2 182//2
f 195//2 196//2 182//2
f 194//2 195//2 182//2
f 193//2 194//2 182//2
f 192//2 193//2 182//2
f 191//2 192//2 182//2
f 190//2 191//2 182//2
f 189//2 190//2 182//2
f 188//2 189//2 182//2
f 187//2 188//2 182//2
f 186//2 187//2 182//2
f 185//2 186//2 182//2
f 184//2 185//2 182//2
f 183//2 184//2 182//2
f 242//2 183//2 182//2
f 123//3 122//3 242//3
f 123//3 242//3 241//3
f 124//4 123//4 241//4
f 124//4 241//4 240//4
f 125//5 124//5 240//5
f 125//5 240//5 239//5
f 126//6 125//6 239//6
f 126//6 239//6 238//6
f 127//7 126//7 238//7
f 127//7 238//7 237//7
f 128//8 127//8 236//8
f 127//9 237//9 236//9
f 129//10 128//10 236//10
f 129//11 236//11 235//11
f 130//12 129//12 235//12
f 130//12 235//12 234//12
f 131//13 130//13 234//13
f 131//14 234//14 233//14
f 132//15 131//15 233//15
f 132//16 233//16 232//16
f 133//17 132//17 232//17
f 133//17 232//17 231//17
f 134//18 133//18 231//18
f 134//18 231//18 230//18
f 135//19 134//19 230//19
f 135//19 230//19 229//19
f 136//20 135//20 229//20
f 136//21 229//21 228//21
f 137//22 136//22 228//22
f 137//22 228//22 227//22
f 138//23 137//23 227//23
f 138//24 227//24 226//24
f 139//25 138//25 226//25
f 139//26 226//26 225//26
f 140//27 139//27 225//27
f 140//27 225//27 224//27
f 141//28 140//28 224//28
f 141//29 224//29 223//29
f 142//30 141//30 223//30
f 142//30 223//30 222//30
f 143//31 142//31 222//31
f 143//31 222//31 221//31
f 144//32 143//32 221//32
f 144//32 221//32 220//32
f 145//33 144//33 220//33
f 145//34 220//34 219//34
f 146//35 145//35 219//35
f 146//36 219//36 218//36
f 147//37 146//37 218//37
f 147//38 218//38 217//38
f 148//39 147//39 217//39
f 148//39 217//39 216//39
f 149//40 148//40 216//40
f 149//40 216//40 215//40
f 150//41 149//41 215//41
f 150//41 215//41 214//41
f 151//42 150//42 214//42
f 151//42 214//42 213//42
f 152//43 151//43 213//43
f 152//44 213//44 212//44
f 153//45 152//45 212//45
f 153//45 212//45 211//45
f 154//46 153//46 211//46
f 154//47 211//47 210//47
f 155//48 154//48 210//48
f 155//48 210//48 209//48
f 156//49 155//49 209//49
f 156//50 209//50 208//50
f 157//51 156//51 208//51
f 157//51 208//51 207//51
f 158//52 157//52 207//52
f 158//52 207//52 206//52
f 159//53 158//53 206//53
f 159//54 206//54 205//54
f 160//55 159//55 205//55
f 160//55 205//55 204//55
f 161//56 160//56 204//56
f 161//56 204//56 203//56
f 162//57 161//57 203//57
f 162//58 203//58 202//58
f 163//59 162//59 202//59
f 163//60 202//60 201//60
f 164//61 163//61 201//61
f 164//61 201//61 200//61
f 165//62 164//62 200//62
f 165//62 200//62 199//62
f 166//63 165//63 199//63
f 166//63 199//63 198//63
f 167//64 166//64 198//64
f 167//65 198//65 197//65
f 168//66 167//66 197//66
f 168//66 197//66 196//66
f 169//67 168//67 196//67
f 169//67 196//67 195//67
f 170//68 169//68 194//68
f 169//69 195//69 194//69
f 171//70 170//70 194//70
f 171//70 194//70 193//70
f 172//71 171//71 192//71
f 171//71 193//71 192//71
f 173//72 172//72 191//72
f 172//72 192//72 191//72
f 174//73 173//73 191//73
f 174//73 191//73 190//73
f 175//74 174//74 190//74
f 175//75 190//75 189//75
f 176//76 175//76 189//76
f 176//76 189//76 188//76
f 177//77 176//77 188//77
f 177//78 188//78 187//78
f 178//79 177//79 187//79
f 178//80 187//80 186//80
f 179//81 178//81 186//81
f 179//82 186//82 185//82
f 180//83 179//83 185//83
f 180//83 185//83 184//83
f 181//84 180//84 184//84
f 181//85 184//85 183//85
f 122//86 181//86 183//86
f 122//86 183//86 242//86
f 121//2 62//2 181//2
f 121//2 181//2 122//2
f 62//2 63//2 180//2
f 62//2 180//2 181//2
f 63//2 64//2 179//2
f 63//2 179//2 180//2
f 64//2 65//2 178//2
f 64//2 178//2 179//2
f 65//2 66//2 177//2
f 65//2 177//2 178//2
f 66//2 67//2 176//2
f 66//2 176//2 177//2
f 67//2 68//2 175//2
f 67//2 175//2 176//2
f 68//2 69//2 174//2
f 68//2 174//2 175//2
f 69//2 70//2 173//2
f 69//2 173//2 174//2
f 70//2 71//2 172//2
f 70//2 172//2 173//2
f 71//2 72//2 171//2
f 71//2 171//2 172//2
f 72//2 73//2 170//2
f 72//2 170//2 171//2
f 73//2 74//2 169//2
f 73//2 169//2 170//2
f 74//2 75//2 168//2
f 74//2 168//2 169//2
f 75//2 76//2 167//2
f 75//2 167//2 168//2
f 76//2 77//2 166//2
f 76//2 166//2 167//2
f 77//2 78//2 165//2
f 77//2 165//2 166//2
f 78//2 79//2 164//2
f 78//2 164//2 165//2
f 79//2 80//2 163//2
f 79//2 163//2 164//2
f 80//2 81//2 162//2
f 80//2 162//2 163//2
f 81//2 82//2 161//2
f 81//2 161//2 162//2
f 82//2 83//2 160//2
f 82//2 160//2 161//2
f 83//2 84//2 159//2
f 83//2 159//2 160//2
f 84//2 85//2 158//2
f 84//2 158//2 159//2
f 85//2 86//2 157//2
f 85//2 157//2 158//2
f 86//2 87//2 156//2
f 86//2 156//2 157//2
f 87//2 88//2 155//2
f 87//2 155//2 156//2
f 88//2 89//2 154//2
f 88//2 154//2 155//2
f 89//2 90//2 153//2
f 89//2 153//2 154//2
f 90//2 91//2 152//2
f 90//2 152//2 153//2
f 91//2 92//2 151//2
f 91//2 151//2 152//2
f 92//2 93//2 150//2
f 92//2 150//2 151//2
f 93//2 94//2 149//2
f 93//2 149//2 150//2
f 94//2 95//2 148//2
f 94//2 148//2 149//2
f 95//2 96//2 147//2
f 95//2 147//2 148//2
f 96//2 97//2 146//2
f 96//2 146//2 147//2
f 97//2 98//2 145//2
f 97//2 145//2 146//2
f 98//2 99//2 144//2
f 98//2 144//2 145//2
f 99//2 100//2 143//2
f 99//2 143//2 144//2
f 100//2 101//2 142//2
f 100//2 142//2 143//2
f 101//2 102//2 141//2
f 101//2 141//2 142//2
f 102//2 103//2 140//2
f 102//2 140//2 141//2
f 103//2 104//2 139//2
f 103//2 139//2 140//2
f 104//2 105//2 138//2
f 104//2 138//2 139//2
f 105//2 106//2 137//2
f 105//2 137//2 138//2
f 106//2 107//2 136//2
f 106//2 136//2 137//2
f 107//2 108//2 135//2
f 107//2 135//2 136//2
f 108//2 109//2 134//2
f 108//2 134//2 135//2
f 109//2 110//2 133//2
f 109//2 133//2 134//2
f 110//2 111//2 132//2
f 110//2 132//2 133//2
f 111//2 112//2 131//2
f 111//2 131//2 132//2
f 112//2 113//2 130//2
f 112//2 130//2 131//2
f 113//2 114//2 129//2
f 113//2 129//2 130//2
f 114//2 115//2 128//2
f 114//2 128//2 129//2
f 115//2 116//2 127//2
f 115//2 127//2 128//2
f 116//2 117//2 126//2
f 116//2 126//2 127//2
f 117//2 118//2 125//2
f 117//2 125//2 126//2
f 118//2 119//2 124//2
f 118//2 124//2 125//2
f 119//2 120//2 123//2
f 119//2 123//2 124//2
f 120//2 121//2 122//2
f 120//2 122//2 123//2
f 2//87 1//87 121//87
f 2//88 121//88 120//88
f 3//89 2//89 120//89
f 3//90 120//90 119//90
f 4//91 3//91 119//91
f 4//91 119//91 118//91
f 5//92 4//92 118//92
f 5//93 118//93 117//93
f 6//94 5//94 117//94
f 6//95 117//95 116//95
f 7//96 6//96 116//96
f 7//97 116//97 115//97
f 8//98 7//98 115//98
f 8//99 115//99 114//99
f 9//100 8//100 114//100
f 9//100 114//100 113//100
f 10//101 9//101 113//101
f 10//102 113//102 112//102
f 11//103 10//103 112//103
f 11//104 112//104 111//104
f 12//105 11//105 111//105
f 12//105 111//105 110//105
f 13//106 12//106 110//106
f 13//106 110//106 109//106
f 14//107 13//107 109//107
f 14//107 109//107 108//107
f 15//108 14//108 108//108
f 15//108 108//108 107//108
f 16//109 15//109 107//109
f 16//110 107//110 106//110
f 17//111 16//111 106//111
f 17//111 106//111 105//111
f 18//112 17//112 105//112
f 18//113 105//113 104//113
f 19//114 18//114 104//114
f 19//115 104//115 103//115
f 20//116 19//116 103//116
f 20//116 103//116 102//116
f 21//117 20//117 102//117
f 21//118 102//118 101//118
f 22//119 21//119 101//119
f 22//120 101//120 100//120
f 23//121 22//121 100//121
f 23//121 100//121 99//121
f 24//122 23//122 99//122
f 24//123 99//123 98//123
f 25//124 24//124 98//124
f 25//124 98//124 97//124
f 26//125 25//125 97//125
f 26//125 97//125 96//125
f 27//126 26//126 96//126
f 27//127 96//127 95//127
f 28//128 27//128 95//128
f 28//129 95//129 94//129
f 29//130 28//130 94//130
f 29//130 94//130 93//130
f 30//131 29//131 93//131
f 30//131 93//131 92//131
f 31//132 30//132 92//132
f 31//132 92//132 91//132
f 32//133 31//133 91//133
f 32//133 91//133 90//133
f 33//134 32//134 90//134
f 33//135 90//135 89//135
f 34//136 33//136 89//136
f 34//136 89//136 88//136
f 35//137 34//137 88//137
f 35//137 88//137 87//137
f 36//138 35//138 87//138
f 36//139 87//139 86//139
f 37//140 36//140 86//140
f 37//141 86//141 85//141
f 38//142 37//142 85//142
f 38//143 85//143 84//143
f 39//144 38//144 84//144
f 39//144 84//144 83//144
f 40//145 39//145 83//145
f 40//145 83//145 82//145
f 41//146 40//146 82//146
f 41//147 82//147 81//147
f 42//148 41//148 81//148
f 42//148 81//148 80//148
f 43//149 42//149 80//149
f 43//149 80//149 79//149
f 44//150 43//150 79//150
f 44//150 79//150 78//150
f 45//151 44//151 78//151
f 45//151 78//151 77//151
f 46//152 45//152 77//152
f 46//152 77//152 76//152
f 47//153 46//153 76//153
f 47//153 76//153 75//153
f 48//154 47//154 75//154
f 48//154 75//154 74//154
f 49//155 48//155 74//155
f 49//156 74//156 73//156
f 50//157 49//157 73//157
f 50//157 73//157 72//157
f 51//158 50//158 72//158
f 51//159 72//159 71//159
f 52//160 51//160 71//160
f 52//161 71//161 70//161
f 53//162 52//162 70//162
f 53//163 70//163 69//163
f 54//164 53//164 69//164
f 54//165 69//165 68//165
f 55//166 54//166 68//166
f 55//166 68//166 67//166
f 56//167 55//167 67//167
f 56//167 67//167 66//167
f 57//168 56//168 66//168
f 57//168 66//168 65//168
f 58//169 57//169 65//169
f 58//169 65//169 64//169
f 59//170 58//170 64//170
f 59//170 64//170 63//170
f 60//171 59//171 63//171
f 60//172 63//172 62//172
f 1//173 60//173 62//173
f 1//173 62//173 121//173
